<svg width="24" height="24" viewBox="0 0 24 24" fill="none" xmlns="http://www.w3.org/2000/svg">
<path d="M4.17334 20.9982C3.87287 20.9982 3.57239 20.884 3.3439 20.6539C2.88537 20.1954 2.88537 19.452 3.3439 18.9935L18.9937 3.34525C19.4522 2.88671 20.1956 2.88671 20.6541 3.34525C21.1127 3.80379 21.1127 4.54715 20.6541 5.00569L5.00278 20.6539C4.7743 20.8824 4.47382 20.9982 4.17334 20.9982Z" fill="currentColor"/>
<path d="M19.8231 20.9984C19.5227 20.9984 19.2222 20.8842 18.9937 20.6541L3.3439 5.00435C2.88537 4.54581 2.88537 3.80244 3.3439 3.3439C3.80244 2.88537 4.54581 2.88537 5.00435 3.3439L20.6526 18.9953C21.1111 19.4538 21.1111 20.1972 20.6526 20.6557C20.4241 20.8842 20.1236 21 19.8231 21V20.9984Z" fill="currentColor"/>
</svg>
