<svg width="24" height="24" viewBox="0 0 24 24" fill="none" xmlns="http://www.w3.org/2000/svg">
<path d="M15.6391 14.407L13.2841 16.728C12.0563 15.9873 10.9158 15.1108 9.88407 14.115C8.89017 13.0819 8.01413 11.9416 7.27207 10.715L9.59107 8.36C9.73035 8.21759 9.82441 8.03718 9.86142 7.84146C9.89843 7.64573 9.87674 7.44343 9.79907 7.26L7.38207 1.614C7.28678 1.39219 7.11512 1.21189 6.89825 1.10584C6.68137 0.999785 6.43366 0.975007 6.20007 1.036L1.75607 2.209C1.53403 2.26601 1.33809 2.39708 1.20062 2.58055C1.06316 2.76401 0.992416 2.98888 1.00007 3.218C1.28246 8.37856 3.42833 13.2612 7.03907 16.959C10.7377 20.5712 15.6219 22.7178 20.7841 23C21.0132 23.0072 21.2379 22.9362 21.4215 22.7989C21.605 22.6615 21.7364 22.4659 21.7941 22.244L22.9661 17.804C23.0282 17.57 23.0041 17.3214 22.8982 17.1037C22.7922 16.8859 22.6116 16.7136 22.3891 16.618L16.7481 14.2C16.5636 14.1201 16.3595 14.0971 16.1619 14.134C15.9644 14.1709 15.7823 14.266 15.6391 14.407Z" fill="currentColor"/>
</svg>
