<svg width="60" height="61" viewBox="0 0 60 61" fill="none" xmlns="http://www.w3.org/2000/svg">
<g id="fi_950326" clip-path="url(#clip0_173_853)">
<g id="Group">
<g id="Group_2">
<path id="Vector" d="M56.2696 29.4617C52.2343 29.4617 48.4886 27.4576 46.2498 24.099L45.4466 22.8942L44.6434 24.099C42.4047 27.4576 38.6589 29.4617 34.6236 29.4617H30.9657V44.9427C30.9657 48.6846 32.6504 52.2015 35.4654 54.5619H15.5195V50.7003H28.0696V33.3233H7.79637V41.0464H2.00402V2.43078H44.4812V19.8078H46.412V0.5H0.0732422V42.4115L14.1544 56.4927H38.433L45.4466 60.5L53.6042 55.8391C57.5043 53.611 59.9275 49.4347 59.9275 44.9427V29.4617H56.2696ZM13.5887 53.1968L3.36909 42.9772H13.5887V53.1968ZM9.72715 41.0464V35.2541H26.1388V48.7695H15.5195V41.0464H9.72715ZM57.9967 44.9427C57.9967 48.7444 55.9462 52.2768 52.6465 54.1632L45.4466 58.2777L38.2467 54.1632C34.947 52.2768 32.8965 48.7444 32.8965 44.9427V31.3925H34.6236C38.852 31.3925 42.8063 29.4955 45.4466 26.2586C48.087 29.4955 52.0412 31.3925 56.2696 31.3925H57.9967V44.9427Z" fill="#1F37D2"/>
</g>
</g>
<g id="Group_3">
<g id="Group_4">
<path id="Vector_2" d="M54.1344 39.1157V44.9428C54.1344 47.3621 52.8292 49.6105 50.7295 50.8105L51.6872 52.4864C54.3874 50.9437 56.0652 48.0533 56.0652 44.9428V39.1157H54.1344Z" fill="#1F37D2"/>
</g>
</g>
<g id="Group_5">
<g id="Group_6">
<path id="Vector_3" d="M5.86523 4.36157V10.1539H40.6193V4.36157H5.86523ZM38.6885 8.22314H7.79602V6.29235H38.6885V8.22314Z" fill="#1F37D2"/>
</g>
</g>
<g id="Group_7">
<g id="Group_8">
<path id="Vector_4" d="M53.4522 33.6062L40.6193 46.4391L37.4403 43.2601L36.0752 44.6252L40.6193 49.1693L54.8173 34.9713L53.4522 33.6062Z" fill="#1F37D2"/>
</g>
</g>
<g id="Group_9">
<g id="Group_10">
<path id="Vector_5" d="M24.2073 37.1848H11.6572V39.1156H24.2073V37.1848Z" fill="#1F37D2"/>
</g>
</g>
<g id="Group_11">
<g id="Group_12">
<path id="Vector_6" d="M24.2079 41.0464H17.4502V42.9772H24.2079V41.0464Z" fill="#1F37D2"/>
</g>
</g>
<g id="Group_13">
<g id="Group_14">
<path id="Vector_7" d="M24.2079 44.908H17.4502V46.8387H24.2079V44.908Z" fill="#1F37D2"/>
</g>
</g>
<g id="Group_15">
<g id="Group_16">
<path id="Vector_8" d="M36.7577 14.0154H5.86523V15.9462H36.7577V14.0154Z" fill="#1F37D2"/>
</g>
</g>
<g id="Group_17">
<g id="Group_18">
<path id="Vector_9" d="M36.7577 17.877H5.86523V19.8077H36.7577V17.877Z" fill="#1F37D2"/>
</g>
</g>
<g id="Group_19">
<g id="Group_20">
<path id="Vector_10" d="M36.7577 21.7385H5.86523V23.6693H36.7577V21.7385Z" fill="#1F37D2"/>
</g>
</g>
<g id="Group_21">
<g id="Group_22">
<path id="Vector_11" d="M24.2077 25.6001H5.86523V27.5309H24.2077V25.6001Z" fill="#1F37D2"/>
</g>
</g>
<g id="Group_23">
<g id="Group_24">
<path id="Vector_12" d="M24.2077 29.4617H5.86523V31.3925H24.2077V29.4617Z" fill="#1F37D2"/>
</g>
</g>
<g id="Group_25">
<g id="Group_26">
<path id="Vector_13" d="M40.6193 14.0154H38.6885V15.9462H40.6193V14.0154Z" fill="#1F37D2"/>
</g>
</g>
<g id="Group_27">
<g id="Group_28">
<path id="Vector_14" d="M40.6193 17.877H38.6885V19.8077H40.6193V17.877Z" fill="#1F37D2"/>
</g>
</g>
<g id="Group_29">
<g id="Group_30">
<path id="Vector_15" d="M40.6193 21.7385H38.6885V23.6693H40.6193V21.7385Z" fill="#1F37D2"/>
</g>
</g>
<g id="Group_31">
<g id="Group_32">
<path id="Vector_16" d="M28.0695 25.6001H26.1387V27.5309H28.0695V25.6001Z" fill="#1F37D2"/>
</g>
</g>
<g id="Group_33">
<g id="Group_34">
<path id="Vector_17" d="M28.0695 29.4617H26.1387V31.3925H28.0695V29.4617Z" fill="#1F37D2"/>
</g>
</g>
</g>
<defs>
<clipPath id="clip0_173_853">
<rect width="60" height="60" fill="white" transform="translate(0 0.5)"/>
</clipPath>
</defs>
</svg>
