<svg width="60" height="61" viewBox="0 0 60 61" fill="none" xmlns="http://www.w3.org/2000/svg">
<g id="fi_11518892">
<path id="Vector" d="M42.6562 10.1445C45.3984 10.1445 47.625 12.3711 47.625 15.1133C47.625 17.8555 45.3984 20.082 42.6562 20.082C39.9141 20.082 37.6875 17.8555 37.6875 15.1133C37.6875 12.3711 39.9141 10.1445 42.6562 10.1445ZM45.1875 12.6055C43.793 11.2109 41.5312 11.2109 40.1367 12.6055C38.7422 14 38.7422 16.2617 40.1367 17.6445C41.5312 19.0391 43.793 19.0391 45.1875 17.6445C46.582 16.25 46.582 13.9883 45.1875 12.6055ZM30.9727 15.6641V14.5742C30.9727 13.5664 31.8047 12.7344 32.8125 12.7344C33.0469 12.7344 33.293 12.7461 33.3867 12.418C33.5859 11.7266 33.8555 11.0703 34.1953 10.4609C34.3594 10.168 34.1836 9.99219 34.0078 9.82812C33.293 9.11328 33.293 7.94141 34.0078 7.22656L34.7812 6.45312C35.5195 5.72656 36.7266 5.73828 37.418 6.48828L37.4883 6.57031C37.6289 6.71094 37.8281 6.73438 38.0039 6.64063C38.625 6.30078 39.2695 6.03125 39.9609 5.83203C40.6055 5.64453 39.9023 4.87109 40.8164 3.95703C41.1445 3.62891 41.6016 3.41797 42.1172 3.41797H43.207C44.2148 3.41797 45.0469 4.25 45.0469 5.25781C45.0469 5.49219 45.0352 5.73828 45.3516 5.83203C46.043 6.03125 46.6875 6.30078 47.3203 6.64063C47.6016 6.80469 47.7773 6.62891 47.9531 6.45312C48.668 5.73828 49.8398 5.73828 50.5547 6.45312L51.3281 7.22656C52.043 7.94141 52.043 9.11328 51.3281 9.82812C51.1641 9.99219 50.9883 10.168 51.1406 10.4609C51.3047 10.7656 51.457 11.082 51.5977 11.4219C51.7266 11.7383 51.8438 12.0781 51.9492 12.4297C52.1367 13.0742 52.9102 12.3711 53.8242 13.2852C54.1523 13.6133 54.3633 14.082 54.3633 14.5859V15.6758C54.3633 16.6836 53.543 17.5156 52.5234 17.5156C52.2891 17.5156 52.043 17.5039 51.9492 17.832C51.75 18.5234 51.4805 19.168 51.1406 19.7891C50.8125 20.375 51.8672 20.4219 51.8672 21.7227C51.8672 22.1914 51.6914 22.6602 51.3281 23.0234L50.5547 23.7969C49.8398 24.5117 48.6797 24.5117 47.9531 23.7969L47.8359 23.6797C47.6953 23.5391 47.4961 23.5156 47.3203 23.6094C46.6992 23.9492 46.0547 24.2188 45.3516 24.418C44.7188 24.6055 45.4102 25.3789 44.4961 26.293C44.168 26.6211 43.7109 26.832 43.1953 26.832H42.1055C41.0977 26.832 40.2656 26 40.2656 24.9922C40.2656 24.7578 40.2773 24.5117 39.9492 24.418C39.2578 24.2188 38.6016 23.9492 37.9922 23.6094C37.7109 23.4453 37.5234 23.6328 37.3594 23.7969C36.6445 24.5117 35.4727 24.5117 34.7578 23.7969L33.9844 23.0234C33.2578 22.2852 33.2695 21.0898 34.0195 20.3867L34.1016 20.3047C34.2422 20.1641 34.2773 19.9648 34.1719 19.7891C34.0078 19.4844 33.8555 19.168 33.7148 18.8281C33.5859 18.5117 33.4688 18.1719 33.3633 17.8203C33.1758 17.1875 32.4023 17.8789 31.4883 16.9648C31.1719 16.6367 30.9727 16.1797 30.9727 15.6641ZM32.3789 14.5742V15.6641C32.3789 15.8984 32.5664 16.0977 32.8125 16.0977C33.3047 16.0977 33.668 16.1562 34.0781 16.4609C34.3828 16.6953 34.6172 17.0234 34.7344 17.4219C34.8164 17.7031 34.9219 17.9961 35.0391 18.2773L35.4375 19.0977C35.8359 19.8242 35.707 20.7031 35.1328 21.2891C35.0039 21.4062 34.8984 21.5117 34.8984 21.7109C34.8984 21.8164 34.9453 21.9336 35.0273 22.0156L35.8008 22.7891C35.9648 22.9531 36.2461 22.9531 36.4102 22.7891C36.75 22.4492 37.043 22.2266 37.5703 22.1563C38.3789 22.0391 38.7773 22.4609 39.5273 22.7656C39.8086 22.8828 40.1016 22.9883 40.3828 23.0703C41.168 23.3047 41.707 24.0195 41.707 24.8398C41.707 25.0156 41.6953 25.1563 41.8359 25.2969C41.918 25.3789 42.0234 25.4258 42.1406 25.4258H43.2305C43.4648 25.4258 43.6641 25.2266 43.6641 24.9922C43.6641 24.5 43.7227 24.1367 44.0273 23.7266C44.2617 23.4219 44.5898 23.1875 44.9883 23.0703C45.5625 22.9063 46.1367 22.6602 46.6641 22.3789C47.3906 21.9805 48.2695 22.1094 48.8555 22.6836C48.9844 22.8125 49.0664 22.918 49.2773 22.918C49.3828 22.918 49.5 22.8828 49.582 22.8008L50.3555 22.0273C50.5195 21.8633 50.5195 21.582 50.3555 21.418C50.0039 21.0664 49.793 20.7617 49.7227 20.2578C49.6055 19.4727 50.0156 19.0625 50.332 18.2891C50.4492 18.0078 50.5547 17.7266 50.6367 17.4336C50.8711 16.6367 51.5859 16.1094 52.4063 16.1094H52.5703C52.8047 16.1094 53.0039 15.9102 53.0039 15.6758V14.5859C53.0039 14.3516 52.8047 14.1523 52.5703 14.1523C52.0781 14.1523 51.7148 14.0938 51.3047 13.7891C50.9883 13.5547 50.7656 13.2266 50.6484 12.8281C50.5664 12.5469 50.4609 12.2656 50.3438 11.9727L49.9453 11.1523C49.5469 10.4258 49.6758 9.54687 50.25 8.96094C50.3789 8.83203 50.4844 8.75 50.4844 8.55078C50.4844 8.43359 50.4492 8.32812 50.3672 8.24609L49.5938 7.47266C49.4297 7.30859 49.1484 7.30859 48.9844 7.47266C48.6445 7.8125 48.3516 8.03516 47.8359 8.10547C47.0508 8.21094 46.6406 7.8125 45.8672 7.49609C45.5859 7.37891 45.3047 7.27344 45.0117 7.19141C44.2266 6.95703 43.6875 6.24219 43.6875 5.42188C43.6875 5.24609 43.6992 5.10547 43.5586 4.96484C43.4766 4.88281 43.3711 4.83594 43.2539 4.83594H42.1641C41.9297 4.83594 41.7305 5.03516 41.7305 5.26953C41.7305 5.76172 41.6719 6.125 41.3672 6.53516C41.1328 6.83984 40.8047 7.07422 40.4062 7.19141C39.832 7.35547 39.2578 7.60156 38.7305 7.89453C38.0039 8.29297 37.125 8.16406 36.5391 7.57812C36.4102 7.44922 36.3164 7.34375 36.1172 7.34375C36 7.34375 35.8945 7.37891 35.8125 7.47266L35.0391 8.24609C34.875 8.41016 34.875 8.69141 35.0391 8.85547C35.3789 9.19531 35.6016 9.48828 35.6719 10.0039C35.7891 10.8125 35.3672 11.2109 35.0625 11.9727C34.9453 12.2539 34.8398 12.5469 34.7578 12.8281C34.5234 13.625 33.8203 14.1523 32.9883 14.1523C32.8125 14.1523 32.6719 14.1406 32.5313 14.2812C32.4258 14.3516 32.3789 14.457 32.3789 14.5742ZM33.5391 52.4609V56.8672C33.5391 57.2539 33.2227 57.5703 32.8359 57.5703H26.0625C25.6758 57.5703 25.3594 57.2539 25.3594 56.8672V52.4609H13.8281V56.8672C13.8281 57.2539 13.5117 57.5703 13.125 57.5703H6.35156C5.96484 57.5703 5.64844 57.2539 5.64844 56.8672V48.0078C5.64844 47.6211 5.96484 47.3047 6.35156 47.3047H8.85938V9.51172C8.85938 9.125 9.17578 8.80859 9.5625 8.80859H28.8164C29.2031 8.80859 29.5195 9.125 29.5195 9.51172V28.0625H48.0703C48.457 28.0625 48.7734 28.3789 48.7734 28.7656V47.3164H52.5703C52.957 47.3164 53.2734 47.6328 53.2734 48.0195V56.8672C53.2734 57.2539 52.957 57.5703 52.5703 57.5703H45.7969C45.4102 57.5703 45.0938 57.2539 45.0938 56.8672V52.4609H33.5391ZM26.7656 52.4609V56.1641H32.1328V52.4609H26.7656ZM46.4883 52.4609V56.1641H51.8555V52.4609H46.4883ZM7.05469 52.4609V56.1641H12.4219V52.4609H7.05469ZM51.8555 48.7109C36.9258 48.7109 21.9844 48.7109 7.05469 48.7109V51.0547H51.8555V48.7109ZM24.8438 24.5234C25.2305 24.5234 25.5469 24.8398 25.5469 25.2266C25.5469 25.6133 25.2305 25.9297 24.8438 25.9297H21.0586C20.6719 25.9297 20.3555 25.6133 20.3555 25.2266C20.3555 24.8398 20.6719 24.5234 21.0586 24.5234H24.8438ZM24.8438 21.125C25.2305 21.125 25.5469 21.4414 25.5469 21.8281C25.5469 22.2148 25.2305 22.5312 24.8438 22.5312H21.0586C20.6719 22.5312 20.3555 22.2148 20.3555 21.8281C20.3555 21.4414 20.6719 21.125 21.0586 21.125H24.8438ZM21.7617 10.2031H16.6055V15.7812L18.7266 13.9414C18.9961 13.707 19.3945 13.7188 19.6523 13.9531L21.7617 15.793V10.2031ZM23.168 10.2031V17.3164C23.168 17.9141 22.4648 18.2422 22.0078 17.8438L19.1836 15.3945L16.4063 17.8203C15.9023 18.2891 15.1992 17.9141 15.1992 17.3281V10.2031H10.2656V28.0508H28.1016V10.2031H23.168ZM44.0859 43.7773C44.4727 43.7773 44.7891 44.0938 44.7891 44.4805C44.7891 44.8672 44.4727 45.1836 44.0859 45.1836H40.3125C39.9258 45.1836 39.6094 44.8672 39.6094 44.4805C39.6094 44.0938 39.9258 43.7773 40.3125 43.7773H44.0859ZM44.0859 40.3672C44.4727 40.3672 44.7891 40.6836 44.7891 41.0703C44.7891 41.457 44.4727 41.7734 44.0859 41.7734H40.3125C39.9258 41.7734 39.6094 41.457 39.6094 41.0703C39.6094 40.6836 39.9258 40.3672 40.3125 40.3672H44.0859ZM35.8477 29.457V35.0352L37.9688 33.1953C38.2383 32.9609 38.6367 32.9727 38.8945 33.207L41.0039 35.0352V29.457H35.8477ZM42.4219 29.457V36.5703C42.4219 37.168 41.7188 37.4961 41.2617 37.0977L38.4375 34.6484L35.6484 37.0625C35.1445 37.5312 34.4414 37.1562 34.4414 36.5703V29.457H29.5078V47.293H47.3555V29.457H42.4219ZM28.1016 47.3047V29.457H23.168V36.5703C23.168 37.168 22.4648 37.4961 22.0078 37.0977L19.1836 34.6484L16.4063 37.0625C15.9023 37.5312 15.1992 37.1562 15.1992 36.5703V29.457H10.2656V47.293H28.1016V47.3047ZM24.8438 43.7773C25.2305 43.7773 25.5469 44.0938 25.5469 44.4805C25.5469 44.8672 25.2305 45.1836 24.8438 45.1836H21.0586C20.6719 45.1836 20.3555 44.8672 20.3555 44.4805C20.3555 44.0938 20.6719 43.7773 21.0586 43.7773H24.8438ZM24.8438 40.3672C25.2305 40.3672 25.5469 40.6836 25.5469 41.0703C25.5469 41.457 25.2305 41.7734 24.8438 41.7734H21.0586C20.6719 41.7734 20.3555 41.457 20.3555 41.0703C20.3555 40.6836 20.6719 40.3672 21.0586 40.3672H24.8438ZM16.6055 29.457V35.0352L18.7266 33.1953C18.9961 32.9609 19.3945 32.9727 19.6523 33.207L21.7617 35.0352V29.457H16.6055Z" fill="#1F37D2"/>
</g>
</svg>
