<svg width="80" height="80" viewBox="0 0 80 80" fill="none" xmlns="http://www.w3.org/2000/svg">
<g id="fi_9746150" clip-path="url(#clip0_203_1118)">
<path id="Vector" d="M37.7609 22.8856C37.7609 22.5956 37.8762 22.3174 38.0813 22.1122C38.2864 21.9071 38.5646 21.7919 38.8547 21.7919H53.3203C53.6104 21.7919 53.8886 21.9071 54.0937 22.1122C54.2988 22.3174 54.4141 22.5956 54.4141 22.8856C54.4141 23.1757 54.2988 23.4539 54.0937 23.659C53.8886 23.8642 53.6104 23.9794 53.3203 23.9794H38.8547C38.5646 23.9794 38.2864 23.8642 38.0813 23.659C37.8762 23.4539 37.7609 23.1757 37.7609 22.8856ZM38.8547 29.3036H61.7006C61.9907 29.3036 62.2689 29.1884 62.474 28.9833C62.6791 28.7781 62.7944 28.4999 62.7944 28.2099C62.7944 27.9198 62.6791 27.6416 62.474 27.4365C62.2689 27.2313 61.9907 27.1161 61.7006 27.1161H38.855C38.5649 27.1161 38.2867 27.2313 38.0816 27.4365C37.8765 27.6416 37.7612 27.9198 37.7612 28.2099C37.7612 28.4999 37.8765 28.7781 38.0816 28.9833C38.2867 29.1884 38.5649 29.3036 38.855 29.3036H38.8547ZM61.7003 32.4349H38.855C38.5649 32.4349 38.2867 32.5501 38.0816 32.7552C37.8765 32.9603 37.7612 33.2385 37.7612 33.5286C37.7612 33.8187 37.8765 34.0969 38.0816 34.302C38.2867 34.5071 38.5649 34.6224 38.855 34.6224H61.7006C61.9907 34.6224 62.2689 34.5071 62.474 34.302C62.6791 34.0969 62.7944 33.8187 62.7944 33.5286C62.7944 33.2385 62.6791 32.9603 62.474 32.7552C62.2689 32.5501 61.9907 32.4349 61.7006 32.4349H61.7003ZM61.7003 37.7542H38.855C38.5649 37.7542 38.2867 37.8695 38.0816 38.0746C37.8765 38.2797 37.7612 38.5579 37.7612 38.848C37.7612 39.1381 37.8765 39.4163 38.0816 39.6214C38.2867 39.8265 38.5649 39.9417 38.855 39.9417H61.7006C61.9907 39.9417 62.2689 39.8265 62.474 39.6214C62.6791 39.4163 62.7944 39.1381 62.7944 38.848C62.7944 38.5579 62.6791 38.2797 62.474 38.0746C62.2689 37.8695 61.9907 37.7542 61.7006 37.7542H61.7003ZM73.1144 60.1469V70.2813C73.1125 71.8771 72.4778 73.4071 71.3494 74.5355C70.2209 75.664 68.691 76.2988 67.0951 76.3006H21.4484C19.8526 76.2988 18.3226 75.664 17.1942 74.5355C16.0658 73.4071 15.431 71.8771 15.4292 70.2813V44.0345L0.37655 31.0167C0.267851 30.9228 0.178728 30.8083 0.114275 30.6799C0.0498212 30.5515 0.0112994 30.4117 0.000910095 30.2683C-0.00947918 30.125 0.00846769 29.9811 0.0537254 29.8447C0.0989831 29.7084 0.170665 29.5823 0.264675 29.4736L22.2287 4.07689C22.3227 3.96819 22.4372 3.87907 22.5656 3.81463C22.6941 3.75019 22.8339 3.71169 22.9773 3.70133C23.1206 3.69097 23.2645 3.70895 23.4009 3.75425C23.5373 3.79955 23.6634 3.87127 23.772 3.96533L31.6406 10.7724L45.8156 4.31079C45.9463 4.25117 46.0875 4.21789 46.2311 4.21285C46.3747 4.20781 46.5179 4.23111 46.6525 4.28141C46.787 4.33172 46.9104 4.40805 47.0155 4.50604C47.1205 4.60403 47.2053 4.72176 47.2648 4.85251L51.5617 14.2797H58.3389C58.629 14.2798 58.9073 14.3951 59.1125 14.6002L67.838 23.3256C68.0431 23.5308 68.1583 23.8091 68.1584 24.0992V40.0289C70.7093 39.6761 73.3004 40.2807 75.4316 41.7261C77.5629 43.1714 79.0832 45.355 79.6992 47.8553C80.3151 50.3557 79.983 52.9956 78.767 55.2655C77.551 57.5354 75.5372 59.2745 73.1144 60.1469ZM65.9701 40.5763V25.1933H60.2969C59.4878 25.1923 58.7121 24.8705 58.14 24.2984C57.5679 23.7263 57.2461 22.9506 57.2451 22.1416V16.4678H34.5855V38.4563L38.6986 42.4774C39.6308 43.3894 40.3661 44.0347 41.344 44.0347H61.3042C62.502 42.4647 64.1197 41.2657 65.9701 40.5763ZM59.4328 22.1416C59.433 22.3705 59.5241 22.5901 59.686 22.752C59.8479 22.9139 60.0674 23.0049 60.2964 23.0052H64.4228L59.4328 18.0156V22.1416ZM45.7276 6.75564L31.9687 13.0275C31.9275 13.0497 31.8849 13.0692 31.8411 13.0858L17.1705 19.7733L24.1406 35.0658H29.1684C30.5287 35.0658 31.5701 35.685 32.3972 36.372V15.3738C32.3972 15.0837 32.5124 14.8055 32.7175 14.6004C32.9226 14.3952 33.2008 14.28 33.4909 14.28H49.1565L45.7276 6.75564ZM15.4292 41.1419V40.2031C15.4314 38.8404 15.974 37.5342 16.938 36.571C17.9021 35.6078 19.2088 35.0664 20.5716 35.0655H21.7362L14.7262 19.6853C14.6666 19.5546 14.6334 19.4134 14.6283 19.2699C14.6233 19.1263 14.6466 18.9831 14.6969 18.8486C14.7472 18.714 14.8236 18.5907 14.9215 18.4856C15.0195 18.3806 15.1372 18.2958 15.268 18.2363L29.4509 11.7708L23.168 6.33564L2.6353 30.0781L15.4292 41.1419ZM70.9264 60.6744C69.4571 60.8681 67.9634 60.7456 66.5453 60.315C65.1272 59.8844 63.8175 59.1557 62.704 58.1777C61.5905 57.1997 60.6989 55.995 60.0889 54.6443C59.4788 53.2937 59.1645 51.8283 59.167 50.3463C59.1659 48.9279 59.4561 47.5244 60.0197 46.2228H41.3437C39.3978 46.2228 38.1094 44.962 37.1684 44.0417L32.7548 39.7266C32.7348 39.7083 32.7155 39.6895 32.6969 39.6699L31.8186 38.8105C30.8533 37.8703 30.1467 37.2531 29.1686 37.2531H20.5716C19.7889 37.2534 19.0382 37.5642 18.4844 38.1172C17.9306 38.6703 17.6187 39.4204 17.6173 40.2031V70.2813C17.6184 71.297 18.0224 72.2708 18.7407 72.9891C19.4589 73.7073 20.4327 74.1114 21.4484 74.1125H67.0951C68.1109 74.1114 69.0848 73.7074 69.803 72.9891C70.5213 72.2709 70.9253 71.297 70.9264 70.2813V60.6744ZM77.8137 50.3463C77.8138 48.7186 77.3311 47.1276 76.4269 45.7742C75.5227 44.4209 74.2374 43.3661 72.7337 42.7432C71.23 42.1203 69.5753 41.9573 67.979 42.2748C66.3826 42.5924 64.9163 43.3761 63.7654 44.527C62.6145 45.6779 61.8307 47.1442 61.5131 48.7406C61.1956 50.3369 61.3585 51.9916 61.9814 53.4953C62.6043 54.999 63.659 56.2843 65.0124 57.1886C66.3657 58.0928 67.9567 58.5755 69.5844 58.5755C71.7661 58.573 73.8578 57.7052 75.4006 56.1625C76.9434 54.6197 77.8112 52.528 77.8137 50.3463ZM75.1547 46.211C75.0531 46.1094 74.9325 46.0288 74.7998 45.9738C74.6671 45.9188 74.5249 45.8906 74.3812 45.8906C74.2376 45.8906 74.0954 45.9188 73.9627 45.9738C73.8299 46.0288 73.7094 46.1094 73.6078 46.211L67.6578 52.1609L65.5612 50.0644C65.3561 49.8593 65.0779 49.744 64.7878 49.744C64.4977 49.744 64.2195 49.8593 64.0144 50.0644C63.8092 50.2695 63.694 50.5477 63.694 50.8378C63.694 51.1279 63.8092 51.4061 64.0144 51.6113L66.8845 54.4813C66.9861 54.5828 67.1067 54.6634 67.2394 54.7184C67.3721 54.7734 67.5143 54.8017 67.658 54.8017C67.8016 54.8017 67.9438 54.7734 68.0765 54.7184C68.2093 54.6634 68.3298 54.5828 68.4314 54.4813L75.1547 47.7578C75.2562 47.6563 75.3368 47.5357 75.3918 47.403C75.4468 47.2703 75.4751 47.128 75.4751 46.9844C75.4751 46.8407 75.4468 46.6985 75.3918 46.5658C75.3368 46.4331 75.2562 46.3125 75.1547 46.211ZM65.0711 67.2833H23.4725C23.1824 67.2833 22.9042 67.3985 22.6991 67.6036C22.494 67.8088 22.3787 68.087 22.3787 68.377C22.3787 68.6671 22.494 68.9453 22.6991 69.1504C22.9042 69.3556 23.1824 69.4708 23.4725 69.4708H65.0711C65.3612 69.4708 65.6394 69.3556 65.8445 69.1504C66.0496 68.9453 66.1648 68.6671 66.1648 68.377C66.1648 68.087 66.0496 67.8088 65.8445 67.6036C65.6394 67.3985 65.3612 67.2833 65.0711 67.2833ZM23.4725 62H34.1425C34.4326 62 34.7108 61.8848 34.9159 61.6797C35.121 61.4745 35.2362 61.1963 35.2362 60.9063C35.2362 60.6162 35.121 60.338 34.9159 60.1329C34.7108 59.9277 34.4326 59.8125 34.1425 59.8125H23.4725C23.1824 59.8125 22.9042 59.9277 22.6991 60.1329C22.494 60.338 22.3787 60.6162 22.3787 60.9063C22.3787 61.1963 22.494 61.4745 22.6991 61.6797C22.9042 61.8848 23.1824 62 23.4725 62Z" fill="#1F37D2" stroke="white" stroke-width="0.6"/>
</g>
<defs>
<clipPath id="clip0_203_1118">
<rect width="80" height="80" fill="white"/>
</clipPath>
</defs>
</svg>
