<svg width="81" height="80" viewBox="0 0 81 80" fill="none" xmlns="http://www.w3.org/2000/svg">
<g id="fi_9122452">
<g id="Group">
<g id="Group_2">
<path id="Vector" d="M59.6822 27.3601C59.5755 27.3601 59.4867 27.3423 59.38 27.3067C58.9178 27.1467 58.6867 26.6312 58.8467 26.169C58.9711 25.8134 59.1489 25.4934 59.3267 25.1734C59.5222 24.8001 59.7 24.4623 59.7889 24.1601C61.3 18.3823 60.9267 10.5245 50.6333 5.95562C46.1889 3.98229 41.2644 3.32451 36.3755 4.08896C30.2422 5.03118 22.8289 7.91118 22.3489 16.3023C22.3311 16.4801 22.2778 16.6401 22.1889 16.7823C22.1 16.9423 20.3578 20.7645 22.1533 26.2223C22.3133 26.6845 22.0467 27.1823 21.5844 27.3423C21.1222 27.5023 20.6244 27.2356 20.4644 26.7734C18.7755 21.6001 19.9311 17.2801 20.6067 16.0001C20.9089 11.7512 22.7933 8.3734 26.2244 5.9734C28.7667 4.19562 32.0911 2.96896 36.1267 2.34673C41.3355 1.54673 46.6155 2.24007 51.3622 4.35562C63.3978 9.68896 62.8822 19.3423 61.5133 24.6223C61.3711 25.1378 61.1222 25.6178 60.9089 26.0267C60.7667 26.3112 60.6244 26.5778 60.5355 26.809C60.3933 27.1467 60.0555 27.3601 59.6822 27.3601ZM22.1889 16.7645L22.1711 16.7823C22.1711 16.7823 22.1889 16.7823 22.1889 16.7645Z" fill="#1F37D2"/>
</g>
<g id="Group_3">
<path id="Vector_2" d="M58.6155 42.5424H47.1311C46.6333 42.5424 46.2422 42.1513 46.2422 41.6535C46.2422 41.1557 46.6333 40.7646 47.1311 40.7646H58.6155C59.2555 40.7646 59.7711 40.2491 59.7711 39.6268V34.6135C59.7711 34.1157 60.1622 33.7246 60.66 33.7246C61.1577 33.7246 61.5489 34.1157 61.5489 34.6135V39.6268C61.5311 41.2268 60.2333 42.5424 58.6155 42.5424Z" fill="#1F37D2"/>
</g>
<g id="Group_4">
<g id="Group_5">
<path id="Vector_3" d="M33.1752 69.4755C32.7129 69.4755 32.2507 69.2977 31.8774 68.9422L20.8729 58.24C20.5174 57.9022 20.5174 57.3333 20.8552 56.9777C21.1929 56.6222 21.7618 56.6222 22.1174 56.96L33.1218 67.6622C33.1396 67.68 33.1929 67.6977 33.2285 67.6622L50.544 54.9333C50.9352 54.6489 51.504 54.72 51.7885 55.1289C52.0729 55.52 52.0018 56.0889 51.5929 56.3733L34.2774 69.1022C33.9574 69.3511 33.5663 69.4755 33.1752 69.4755Z" fill="#1F37D2"/>
</g>
<g id="Group_6">
<path id="Vector_4" d="M47.824 69.4578C47.4329 69.4578 47.024 69.3333 46.704 69.0844L29.4062 56.3733C29.0151 56.0889 28.9262 55.52 29.2106 55.1289C29.4951 54.7377 30.064 54.6489 30.4551 54.9333L47.7706 67.6622C47.824 67.6977 47.8595 67.6977 47.8773 67.6622L58.864 56.96C59.2195 56.6222 59.7706 56.6222 60.1262 56.9777C60.464 57.3333 60.464 57.8844 60.1084 58.24L49.1218 68.9422C48.7662 69.28 48.304 69.4578 47.824 69.4578Z" fill="#1F37D2"/>
</g>
</g>
<g id="Group_7">
<path id="Vector_5" d="M78.722 78.0091H2.27755C2.01088 78.0091 1.76199 77.9024 1.60199 77.6891C1.44199 77.4757 1.37088 77.2268 1.40643 76.9602C3.09532 67.0757 10.5264 59.2179 20.3042 56.9602L29.0509 54.9513V47.5913C29.0509 47.0935 29.442 46.7024 29.9398 46.7024C30.4375 46.7024 30.8287 47.0935 30.8287 47.5913V55.6446C30.8287 56.0535 30.5442 56.4268 30.1353 56.5157L20.6953 58.6846C11.9487 60.6935 5.24643 67.5202 3.34421 76.2135H77.6375C76.8909 72.7824 75.3442 69.5468 73.1575 66.7913C69.922 62.7202 65.3531 59.8402 60.2864 58.6846L50.8464 56.5157C50.4375 56.4268 50.1531 56.0713 50.1531 55.6446V47.8224C50.1531 47.3246 50.5442 46.9335 51.042 46.9335C51.5398 46.9335 51.9309 47.3246 51.9309 47.8224V54.9335L60.6775 56.9424C66.1353 58.2046 71.0598 61.2979 74.5264 65.6891C77.122 68.9602 78.8642 72.8535 79.5753 76.9424C79.6287 77.2091 79.5575 77.4579 79.3798 77.6713C79.2375 77.8846 78.9887 78.0091 78.722 78.0091Z" fill="#1F37D2"/>
</g>
<g id="Group_8">
<path id="Vector_6" d="M45.1931 44.7113H41.2642C39.6997 44.7113 38.4375 43.449 38.4375 41.8846V41.4224C38.4375 39.8579 39.6997 38.5957 41.2642 38.5957H45.1931C46.7575 38.5957 48.0197 39.8579 48.0197 41.4224V41.9024C48.0019 43.449 46.7397 44.7113 45.1931 44.7113ZM41.2464 40.3735C40.6775 40.3735 40.1975 40.8357 40.1975 41.4224V41.9024C40.1975 42.4713 40.6597 42.9513 41.2464 42.9513H45.1753C45.7442 42.9513 46.2242 42.489 46.2242 41.9024V41.4224C46.2242 40.8535 45.7619 40.3735 45.1753 40.3735H41.2464Z" fill="#1F37D2"/>
</g>
<g id="Group_9">
<path id="Vector_7" d="M24.1796 35.5912H20.8907C19.4507 35.5912 18.2773 34.4178 18.2773 32.9778V28.1956C18.2773 26.7556 19.4507 25.5823 20.8907 25.5823H24.0196C24.5173 25.5823 24.9085 25.9734 24.9085 26.4712C24.9085 26.9689 24.5173 27.3601 24.0196 27.3601H20.8907C20.4285 27.3601 20.0551 27.7334 20.0551 28.1956V32.9778C20.0551 33.4401 20.4285 33.8134 20.8907 33.8134H24.1796C24.6773 33.8134 25.0685 34.2045 25.0685 34.7023C25.0685 35.2001 24.6596 35.5912 24.1796 35.5912Z" fill="#1F37D2"/>
</g>
<g id="Group_10">
<path id="Vector_8" d="M60.1088 35.5912H57.051C56.5533 35.5912 56.1622 35.2001 56.1622 34.7023C56.1622 34.2045 56.5533 33.8134 57.051 33.8134H60.1088C60.1977 33.8134 60.2866 33.7957 60.3755 33.7779C60.7133 33.6712 60.9444 33.3512 60.9444 32.9957V28.2134C60.9444 27.7512 60.571 27.3779 60.1088 27.3779H56.8733C56.3755 27.3779 55.9844 26.9868 55.9844 26.489C55.9844 25.9912 56.3755 25.6001 56.8733 25.6001H60.1088C61.5488 25.6001 62.7222 26.7734 62.7222 28.2134V32.9957C62.7222 34.1157 62.011 35.1112 60.9266 35.4668C60.6599 35.5379 60.3933 35.5912 60.1088 35.5912Z" fill="#1F37D2"/>
</g>
<g id="Group_11">
<path id="Vector_9" d="M67.3088 78.0089C66.811 78.0089 66.4199 77.6178 66.4199 77.12V70.9333C66.4199 70.4355 66.811 70.0444 67.3088 70.0444C67.8066 70.0444 68.1977 70.4355 68.1977 70.9333V77.12C68.1977 77.6178 67.8066 78.0089 67.3088 78.0089Z" fill="#1F37D2"/>
</g>
<g id="Group_12">
<path id="Vector_10" d="M14.4729 78.0089C13.9751 78.0089 13.584 77.6178 13.584 77.12V70.9333C13.584 70.4355 13.9751 70.0444 14.4729 70.0444C14.9707 70.0444 15.3618 70.4355 15.3618 70.9333V77.12C15.3618 77.6178 14.9707 78.0089 14.4729 78.0089Z" fill="#1F37D2"/>
</g>
<g id="Group_13">
<g id="Group_14">
<path id="Vector_11" d="M40.6242 52.7645C36.1798 52.7645 31.9309 50.9156 28.6242 47.5734C25.4064 44.2845 23.5042 40 23.2909 35.4845C23.2909 35.4667 23.2909 35.4667 23.2909 35.4667L23.042 22.56C23.042 22.2756 23.1664 22.0089 23.3975 21.8311C23.6287 21.6534 23.9131 21.6 24.1798 21.6889C24.2153 21.7067 27.4153 22.6134 31.9309 22.4534C36.0731 22.3111 42.2242 21.2267 47.9664 16.8178C48.2153 16.6223 48.5531 16.5867 48.8375 16.6934C49.122 16.8 49.3353 17.0845 49.3887 17.3867C49.4064 17.5289 49.7798 20.2311 48.482 22.6667C50.2598 22.2223 53.0509 20.9778 56.002 17.4578C56.2331 17.1734 56.6242 17.0667 56.9798 17.1911C57.3353 17.3156 57.5664 17.6356 57.5664 18.0089L57.9398 35.4134V35.4667C57.7264 39.9823 55.8242 44.2667 52.6064 47.5556C49.3353 50.9334 45.0687 52.7645 40.6242 52.7645ZM25.0864 35.4134C25.4953 44 32.4642 50.9867 40.642 50.9867C48.802 50.9867 55.7709 44.0178 56.1798 35.4312L55.8598 20.2489C51.0064 25.0134 46.6509 24.6756 46.4553 24.6578C46.0998 24.6223 45.8153 24.3911 45.6909 24.0534C45.5842 23.7156 45.6731 23.36 45.9398 23.1111C47.1664 21.9911 47.5575 20.3911 47.6642 19.2178C41.9398 23.0756 36.0375 24.0711 31.9487 24.2134C28.7664 24.32 26.242 23.9289 24.8731 23.6445L25.0864 35.4134Z" fill="#1F37D2"/>
</g>
</g>
</g>
</g>
</svg>
