<svg width="60" height="61" viewBox="0 0 60 61" fill="none" xmlns="http://www.w3.org/2000/svg">
<g id="fi_1023404" clip-path="url(#clip0_173_809)">
<g id="Group">
<g id="Group_2">
<path id="Vector" d="M38.831 28.5972H36.917C36.4316 28.5972 36.0381 28.9906 36.0381 29.4761C36.0382 29.9615 36.4316 30.355 36.917 30.355H38.831C39.3164 30.355 39.7099 29.9616 39.7099 29.4761C39.7099 28.9907 39.3165 28.5972 38.831 28.5972Z" fill="#1F37D2"/>
</g>
</g>
<g id="Group_3">
<g id="Group_4">
<path id="Vector_2" d="M32.8277 28.5972H21.1689C20.6834 28.5972 20.29 28.9907 20.29 29.4761C20.29 29.9615 20.6834 30.355 21.1689 30.355H32.8277C33.3131 30.355 33.7066 29.9616 33.7066 29.4761C33.7066 28.9907 33.3132 28.5972 32.8277 28.5972Z" fill="#1F37D2"/>
</g>
</g>
<g id="Group_5">
<g id="Group_6">
<path id="Vector_3" d="M36.9922 32.2305H23.0078C22.5224 32.2305 22.1289 32.6239 22.1289 33.1094C22.1289 33.5949 22.5223 33.9883 23.0078 33.9883H36.9921C37.4775 33.9883 37.871 33.5949 37.871 33.1094C37.871 32.6239 37.4776 32.2305 36.9922 32.2305Z" fill="#1F37D2"/>
</g>
</g>
<g id="Group_7">
<g id="Group_8">
<path id="Vector_4" d="M51.115 6.36138L47.5207 1.99965C46.7355 1.04656 45.5768 0.5 44.3417 0.5H22.2003C21.7149 0.5 21.3214 0.893399 21.3214 1.37891C21.3214 1.86442 21.7148 2.25782 22.2003 2.25782H44.3417C45.0496 2.25782 45.714 2.57118 46.1641 3.11751L49.7585 7.47923C50.1925 8.00599 50.4316 8.67197 50.4316 9.35459V22.7868L31.647 20.751C31.4467 20.7294 28.553 20.7293 28.3523 20.7511L9.56836 22.7868V9.35459C9.56836 8.67197 9.80743 8.00599 10.2415 7.47923L13.8359 3.11751C14.2861 2.57118 14.9503 2.25782 15.6583 2.25782H18.1111C18.5965 2.25782 18.99 1.86442 18.99 1.37891C18.99 0.893399 18.5966 0.5 18.1111 0.5H15.6583C14.4233 0.5 13.2647 1.04656 12.4793 1.99953L8.88492 6.36126C8.19211 7.20208 7.81055 8.26509 7.81055 9.35447C7.81055 9.3547 7.81055 9.35447 7.81055 9.3547V36.9188C7.81055 36.9514 7.81266 36.9834 7.81605 37.0149C7.81687 37.0224 7.81852 37.0299 7.81945 37.0374C7.82273 37.0616 7.8266 37.0855 7.83176 37.1091C7.83234 37.1118 7.83258 37.1146 7.83316 37.1173L10.3567 48.0022V49.4058C10.3567 50.7681 11.465 51.8764 12.8272 51.8764H15.0692L14.4164 52.8614H12.5791C12.0938 52.8614 11.7002 53.2548 11.7002 53.7403C11.7002 54.2258 12.0936 54.6192 12.5791 54.6192H13.2517L12.1258 56.3184H10.4037C9.91829 56.3184 9.52477 56.7118 9.52477 57.1973C9.52477 57.6827 9.91817 58.0762 10.4037 58.0762H10.9609L10.7231 58.4349C10.4513 58.8453 10.4271 59.3697 10.6601 59.8038C10.8907 60.2333 11.3353 60.5 11.8202 60.5H14.2072C14.649 60.5 15.0592 60.2791 15.3044 59.9091L16.519 58.0761H43.4808L44.6955 59.9091C44.9407 60.2791 45.3508 60.5 45.7926 60.5H48.1796C48.6646 60.5 49.1091 60.2333 49.3398 59.8038C49.5727 59.3697 49.5486 58.8453 49.2767 58.435L49.0389 58.0762H49.5961C50.0814 58.0762 50.475 57.6828 50.475 57.1973C50.475 56.7119 50.0816 56.3184 49.5961 56.3184H47.8742L46.7483 54.6192H47.4206C47.906 54.6192 48.2995 54.2258 48.2995 53.7403C48.2995 53.2548 47.9061 52.8614 47.4206 52.8614H45.5835L44.9308 51.8764H47.1725C48.5348 51.8764 49.643 50.768 49.643 49.4058V48.0022L52.1666 37.1173C52.1672 37.1146 52.1674 37.1118 52.168 37.1091C52.1731 37.0855 52.177 37.0615 52.1803 37.0374C52.1813 37.0299 52.1829 37.0224 52.1837 37.0149C52.1871 36.9832 52.1892 36.9512 52.1892 36.9188V9.35482C52.1892 9.35447 52.1892 9.35482 52.1892 9.35459C52.1895 8.26509 51.8079 7.20208 51.115 6.36138ZM13.9691 58.7424H12.6283L17.1778 51.8766H18.5187L13.9691 58.7424ZM17.684 56.3185L18.8099 54.6193H41.1902L42.3161 56.3185H17.684ZM19.9746 52.8616L20.6273 51.8766H39.3728L40.0255 52.8616H19.9746ZM47.3718 58.7424H46.031L41.4814 51.8766H42.8223L47.3718 58.7424ZM47.8853 49.406C47.8855 49.7991 47.5657 50.1188 47.1726 50.1188H12.8272C12.4342 50.1188 12.1144 49.7991 12.1144 49.406V48.7805H47.8853V49.406ZM48.0658 47.0228H11.9341L9.79535 37.7978H11.2597C11.6656 39.7121 13.3682 41.1531 15.4015 41.1531C17.4349 41.1531 19.1376 39.7122 19.5434 37.7978H40.4567C40.8625 39.7121 42.5651 41.1531 44.5986 41.1531C46.6319 41.1531 48.3345 39.7122 48.7404 37.7978H50.2047L48.0658 47.0228ZM12.9251 36.9189C12.9251 35.5534 14.0359 34.4426 15.4014 34.4426C16.7669 34.4426 17.8778 35.5534 17.8778 36.9189C17.8778 38.2844 16.7669 39.3953 15.4014 39.3953C14.0359 39.3953 12.9251 38.2844 12.9251 36.9189ZM42.1222 36.9189C42.1222 35.5534 43.2331 34.4426 44.5986 34.4426C45.9641 34.4426 47.0749 35.5534 47.0749 36.9189C47.0749 38.2844 45.9641 39.3953 44.5986 39.3953C43.233 39.3953 42.1222 38.2844 42.1222 36.9189ZM50.4318 36.0401H48.7402C48.3344 34.1258 46.6318 32.6849 44.5985 32.6849C42.565 32.6849 40.8624 34.1258 40.4566 36.0401H19.5434C19.1376 34.1258 17.4349 32.6849 15.4015 32.6849C13.3682 32.6849 11.6656 34.1258 11.2597 36.0401H9.56836V24.5548L28.5198 22.5009C28.8169 22.4902 31.1831 22.4902 31.4804 22.5009L50.4318 24.5548V36.0401Z" fill="#1F37D2"/>
</g>
</g>
<g id="Group_9">
<g id="Group_10">
<path id="Vector_5" d="M15.3779 42.2166C14.8925 42.2166 14.499 42.61 14.499 43.0955V45.157C14.499 45.6424 14.8924 46.0359 15.3779 46.0359C15.8633 46.0359 16.2568 45.6425 16.2568 45.157V43.0955C16.2568 42.61 15.8633 42.2166 15.3779 42.2166Z" fill="#1F37D2"/>
</g>
</g>
<g id="Group_11">
<g id="Group_12">
<path id="Vector_6" d="M20.252 42.2166C19.7666 42.2166 19.373 42.61 19.373 43.0955V45.157C19.373 45.6424 19.7664 46.0359 20.252 46.0359C20.7375 46.0359 21.1309 45.6425 21.1309 45.157V43.0955C21.1309 42.61 20.7375 42.2166 20.252 42.2166Z" fill="#1F37D2"/>
</g>
</g>
<g id="Group_13">
<g id="Group_14">
<path id="Vector_7" d="M25.126 42.2166C24.6406 42.2166 24.2471 42.61 24.2471 43.0955V45.157C24.2471 45.6424 24.6405 46.0359 25.126 46.0359C25.6114 46.0359 26.0049 45.6425 26.0049 45.157V43.0955C26.0047 42.61 25.6113 42.2166 25.126 42.2166Z" fill="#1F37D2"/>
</g>
</g>
<g id="Group_15">
<g id="Group_16">
<path id="Vector_8" d="M30 42.2166C29.5146 42.2166 29.1211 42.61 29.1211 43.0955V45.157C29.1211 45.6424 29.5145 46.0359 30 46.0359C30.4854 46.0359 30.8789 45.6425 30.8789 45.157V43.0955C30.8789 42.61 30.4855 42.2166 30 42.2166Z" fill="#1F37D2"/>
</g>
</g>
<g id="Group_17">
<g id="Group_18">
<path id="Vector_9" d="M34.874 42.2166C34.3886 42.2166 33.9951 42.61 33.9951 43.0955V45.157C33.9951 45.6424 34.3885 46.0359 34.874 46.0359C35.3594 46.0359 35.7529 45.6425 35.7529 45.157V43.0955C35.7529 42.61 35.3594 42.2166 34.874 42.2166Z" fill="#1F37D2"/>
</g>
</g>
<g id="Group_19">
<g id="Group_20">
<path id="Vector_10" d="M39.748 42.2166C39.2627 42.2166 38.8691 42.61 38.8691 43.0955V45.157C38.8691 45.6424 39.2625 46.0359 39.748 46.0359C40.2334 46.0359 40.627 45.6425 40.627 45.157V43.0955C40.627 42.61 40.2336 42.2166 39.748 42.2166Z" fill="#1F37D2"/>
</g>
</g>
<g id="Group_21">
<g id="Group_22">
<path id="Vector_11" d="M44.6221 42.2166C44.1367 42.2166 43.7432 42.61 43.7432 43.0955V45.157C43.7432 45.6424 44.1366 46.0359 44.6221 46.0359C45.1075 46.0359 45.501 45.6425 45.501 45.157V43.0955C45.501 42.61 45.1076 42.2166 44.6221 42.2166Z" fill="#1F37D2"/>
</g>
</g>
<g id="Group_23">
<g id="Group_24">
<path id="Vector_12" d="M26.0078 8.40918H12.2828C11.3536 8.40918 10.5977 9.16516 10.5977 10.0942V18.1367C10.5977 18.6146 10.8017 19.0716 11.1572 19.3908C11.4677 19.6695 11.8701 19.8219 12.2832 19.8219C12.3434 19.8219 12.4039 19.8187 12.4642 19.812L26.1892 18.3246H26.1894C27.0465 18.2316 27.6929 17.5114 27.6929 16.6494V10.0942C27.6929 9.16516 26.9369 8.40918 26.0078 8.40918ZM25.9352 16.5841L12.3555 18.0557V10.1669H25.9352V16.5841Z" fill="#1F37D2"/>
</g>
</g>
<g id="Group_25">
<g id="Group_26">
<path id="Vector_13" d="M47.4306 8.40918H33.7055C32.7765 8.40918 32.0205 9.16516 32.0205 10.0942V16.6494C32.0205 17.5114 32.6668 18.2316 33.524 18.3246L47.2489 19.812C47.3094 19.8187 47.3698 19.8219 47.43 19.8219C47.8432 19.8219 48.2456 19.6694 48.556 19.3908C48.9116 19.0716 49.1156 18.6146 49.1156 18.1367V10.0942C49.1155 9.16516 48.3596 8.40918 47.4306 8.40918ZM47.3579 18.0557L33.7782 16.5841V10.1669H47.3579V18.0557Z" fill="#1F37D2"/>
</g>
</g>
</g>
<defs>
<clipPath id="clip0_173_809">
<rect width="60" height="60" fill="white" transform="translate(0 0.5)"/>
</clipPath>
</defs>
</svg>
