<svg width="80" height="80" viewBox="0 0 80 80" fill="none" xmlns="http://www.w3.org/2000/svg">
<g id="fi_1401914" clip-path="url(#clip0_4004_1191)">
<g id="Group 3">
<path id="Vector" d="M80 41.2903V30.9369C80 28.0658 78.1521 25.5822 75.4026 24.7574L67.0968 22.2656V20.3056C69.4336 18.6712 70.9677 15.9652 70.9677 12.9045V9.03226C70.9677 4.05179 66.916 0 61.9355 0C56.955 0 52.9032 4.05179 52.9032 9.03226V12.9032C52.9032 15.9652 54.4374 18.6712 56.7742 20.3043V22.2644L49.4544 24.4607C46.7074 22.0042 43.2075 20.6452 39.4916 20.6452C35.7907 20.6452 32.4049 22.001 29.7883 24.2351L23.2258 22.2656V20.3056C25.5626 18.6712 27.0968 15.9652 27.0968 12.9045V9.03226C27.0968 4.05179 23.045 0 18.0645 0C13.084 0 9.03226 4.05179 9.03226 9.03226V12.9032C9.03226 15.9652 10.5664 18.6712 12.9032 20.3043V22.2644L4.5974 24.7562C1.84791 25.5822 0 28.0658 0 30.9369V41.2903H2.58065V30.9369C2.58065 29.2143 3.68889 27.7237 5.33959 27.2297L13.6479 24.7366C14.3989 25.7119 15.8518 27.0968 18.0645 27.0968C20.2772 27.0968 21.7301 25.7119 22.4811 24.7366L27.7728 26.3237C26.0931 28.4362 24.9742 31.0074 24.6346 33.8206C22.987 32.0697 20.654 30.9677 18.0645 30.9677C13.084 30.9677 9.03226 35.0195 9.03226 40V43.871C9.03226 46.933 10.5664 49.639 12.9032 51.2721V53.2321L4.5974 55.7239C1.84791 56.5499 0 59.0335 0 61.9046V73.5484H15.4839C16.1946 73.5484 16.7742 74.128 16.7742 74.8387V80H63.2258V74.8387C63.2258 74.128 63.8054 73.5484 64.5161 73.5484H80V61.9046C80 59.0335 78.1521 56.5499 75.4026 55.7252L67.0968 53.2334V51.2733C69.4336 49.639 70.9677 46.933 70.9677 43.8722V40.0013C70.9677 35.0208 66.916 30.969 61.9355 30.969C59.409 30.969 57.1251 32.0142 55.4839 33.6914V32.4685C55.4839 29.92 54.099 27.626 51.938 26.4132L57.5189 24.7379C58.2699 25.7119 59.7228 27.0968 61.9355 27.0968C64.1482 27.0968 65.6011 25.7119 66.3521 24.7366L74.6617 27.2297C76.3111 27.7237 77.4194 29.2143 77.4194 30.9369V41.2903H80ZM18.0645 2.58065C21.6217 2.58065 24.5161 5.47505 24.5161 9.03226H18.5988C17.7791 9.03226 16.9752 8.6996 16.3962 8.11996L15.4839 7.20766L14.5716 8.11996C13.9926 8.6996 13.1886 9.03226 12.369 9.03226H11.6129C11.6129 5.47505 14.5073 2.58065 18.0645 2.58065ZM11.6129 12.9032V11.6129H12.369C13.4929 11.6129 14.5665 11.2903 15.4839 10.688C16.4012 11.2903 17.4748 11.6129 18.5988 11.6129H24.5161V12.9032C24.5161 16.4604 21.6217 19.3548 18.0645 19.3548C14.5073 19.3548 11.6129 16.4604 11.6129 12.9032ZM18.0645 24.5161C16.6929 24.5161 15.8039 23.3638 15.4839 22.8711V21.5562C16.3017 21.8 17.168 21.9355 18.0645 21.9355C18.9611 21.9355 19.8274 21.8 20.6452 21.5549V22.8698C20.3251 23.365 19.4361 24.5161 18.0645 24.5161ZM53.5326 47.1636C54.1898 48.8325 55.3238 50.2596 56.7742 51.2733V53.2334L48.4696 55.7252C48.1962 55.8065 47.9303 55.9123 47.6707 56.0295L46.4516 55.7485V53.2063C47.8308 52.098 48.9176 50.6426 49.5848 48.9743C51.0711 48.8439 52.4647 48.2113 53.5326 47.1636ZM40 55.4839C41.3691 55.4839 42.6752 55.2104 43.871 54.724V56.129L40 59.0323L36.129 56.129V54.724C37.3249 55.2104 38.6309 55.4839 40 55.4839ZM34.5445 58.1666L37.6903 60.5267L34.4544 62.4685L33.636 58.377L34.5445 58.1666ZM38.5742 68.3871H41.4258L42.4294 77.4194H37.5706L38.5742 68.3871ZM41.6501 65.8065H38.3487L37.6077 63.5843L40 62.1497L42.391 63.5843L41.6501 65.8065ZM42.3097 60.5267L45.4555 58.1666L46.364 58.3758L45.5456 62.4672L42.3097 60.5267ZM51.8971 45.1846C51.4504 45.6748 50.8827 46.0181 50.2671 46.2273C50.3031 45.8764 50.3226 45.521 50.3226 45.1613V38.9869C51.7112 39.5136 52.7445 40.7353 52.8837 42.1951C52.9895 43.3058 52.6399 44.3662 51.8971 45.1846ZM47.7419 45.1613C47.7419 49.4311 44.2698 52.9032 40 52.9032C35.7302 52.9032 32.2581 49.4311 32.2581 45.1613V38.7097H36.6387C39.4506 38.7097 42.1869 38.0078 44.6333 36.6671L45.654 38.7097H47.7419V45.1613ZM29.7329 46.2273C29.1173 46.0181 28.5496 45.6748 28.103 45.1846C27.3601 44.3674 27.0105 43.3058 27.1163 42.1963C27.2555 40.7365 28.2888 39.5136 29.6774 38.9882V45.1613C29.6774 45.521 29.697 45.8764 29.7329 46.2273ZM30.4152 48.9743C31.0812 50.6426 32.168 52.098 33.5484 53.2063V55.7485L32.3293 56.0295C32.0684 55.9123 31.8038 55.8077 31.5316 55.7252L23.2258 53.2334V51.2733C24.6749 50.2596 25.8102 48.8325 26.4674 47.1636C27.5353 48.2113 28.9289 48.8439 30.4152 48.9743ZM18.0645 33.5484C21.6217 33.5484 24.5161 36.4428 24.5161 40H23.7601C22.9404 40 22.1365 39.6673 21.5575 39.0877L20.6452 38.1754L19.7329 39.0877C19.1539 39.6673 18.3499 40 17.5302 40H11.6129C11.6129 36.4428 14.5073 33.5484 18.0645 33.5484ZM11.6129 43.871V42.5806H17.5302C18.6542 42.5806 19.7278 42.2581 20.6452 41.6558C21.5625 42.2581 22.6361 42.5806 23.7601 42.5806H24.5161V43.871C24.5161 47.4282 21.6217 50.3226 18.0645 50.3226C14.5073 50.3226 11.6129 47.4282 11.6129 43.871ZM18.0645 52.9032C18.9611 52.9032 19.8274 52.7678 20.6452 52.5227V53.8376C20.3251 54.3328 19.4361 55.4839 18.0645 55.4839C16.6929 55.4839 15.8039 54.3315 15.4839 53.8388V52.5239C16.3017 52.7678 17.168 52.9032 18.0645 52.9032ZM15.4839 70.9677H10.3226V61.9355H7.74194V70.9677H2.58065V61.9046C2.58065 60.1821 3.68889 58.6914 5.33959 58.1975L13.6479 55.7044C14.3989 56.6797 15.8518 58.0645 18.0645 58.0645C20.2772 58.0645 21.7301 56.6797 22.4811 55.7044L27.374 57.173L23.7752 58.0028C19.6528 58.9548 16.7742 62.5743 16.7742 66.8038V68.3871H19.3548V66.8038C19.3548 63.7821 21.4119 61.1977 24.3561 60.5173L31.1202 58.956L32.6411 66.5638L35.3409 64.9446L36.1045 67.236L34.9742 77.4194H28.3871V67.0968H25.8065V77.4194H19.3548V74.8387C19.3548 72.7048 17.6178 70.9677 15.4839 70.9677ZM74.6604 58.1975C76.3111 58.6914 77.4194 60.1821 77.4194 61.9046V70.9677H72.2581V61.9355H69.6774V70.9677H64.5161C62.3822 70.9677 60.6452 72.7048 60.6452 74.8387V77.4194H54.1936V67.0968H51.6129V77.4194H45.0258L43.8943 67.236L44.6579 64.9446L47.3576 66.5638L48.8785 58.956L55.6439 60.5173C58.5881 61.1977 60.6452 63.7821 60.6452 66.8038V68.3871H63.2258V66.8038C63.2258 62.5743 60.3472 58.9548 56.2248 58.0028L52.626 57.173L57.5189 55.7044C58.2699 56.6797 59.7228 58.0645 61.9355 58.0645C64.1482 58.0645 65.6011 56.6797 66.3521 55.7044L74.6604 58.1975ZM64.5161 53.8388C64.1961 54.3328 63.3071 55.4839 61.9355 55.4839C60.5614 55.4839 59.6711 54.3278 59.3548 53.8388V52.5227C60.1726 52.7678 61.0389 52.9032 61.9355 52.9032C62.832 52.9032 63.6983 52.7678 64.5161 52.5227V53.8388ZM61.9355 50.3226C58.3783 50.3226 55.4839 47.4282 55.4839 43.871V42.5806H56.2399C57.3639 42.5806 58.4375 42.2581 59.3548 41.6558C60.2722 42.2581 61.3458 42.5806 62.4698 42.5806H68.3871V43.871C68.3871 47.4282 65.4927 50.3226 61.9355 50.3226ZM61.9355 33.5484C65.4927 33.5484 68.3871 36.4428 68.3871 40H62.4698C61.6501 40 60.8461 39.6673 60.2671 39.0877L59.3548 38.1754L58.4425 39.0877C57.8635 39.6673 57.0596 40 56.2399 40H55.4839C55.4839 36.4428 58.3783 33.5484 61.9355 33.5484ZM52.9032 37.529C51.7616 36.6646 50.3434 36.129 48.8105 36.129H47.2492L45.6622 32.9549L44.4462 33.7651C42.1251 35.3125 39.426 36.129 36.6387 36.129H31.1895C29.6566 36.129 28.2384 36.6646 27.0968 37.529V35.6206C27.0968 28.7872 32.6581 23.2258 39.4916 23.2258C42.8024 23.2258 45.9161 24.5149 48.2567 26.8555L49.6258 28.2245L49.9149 28.3216C51.7017 28.9176 52.9032 30.5834 52.9032 32.4672V37.529ZM61.9355 2.58065C65.4927 2.58065 68.3871 5.47505 68.3871 9.03226H67.6311C66.8114 9.03226 66.0074 8.6996 65.4284 8.11996L64.5161 7.20766L63.6038 8.11996C63.0248 8.6996 62.2209 9.03226 61.4012 9.03226H55.4839C55.4839 5.47505 58.3783 2.58065 61.9355 2.58065ZM55.4839 12.9032V11.6129H61.4012C62.5252 11.6129 63.5988 11.2903 64.5161 10.688C65.4335 11.2903 66.5071 11.6129 67.6311 11.6129H68.3871V12.9032C68.3871 16.4604 65.4927 19.3548 61.9355 19.3548C58.3783 19.3548 55.4839 16.4604 55.4839 12.9032ZM61.9355 24.5161C60.5614 24.5161 59.6711 23.36 59.3548 22.8711V21.5549C60.1726 21.8 61.0389 21.9355 61.9355 21.9355C62.832 21.9355 63.6983 21.8 64.5161 21.5549V22.8698C64.1961 23.365 63.3071 24.5161 61.9355 24.5161Z" fill="#1F37D2" stroke="white" stroke-width="0.8"/>
</g>
</g>
<defs>
<clipPath id="clip0_4004_1191">
<rect width="80" height="80" fill="white"/>
</clipPath>
</defs>
</svg>
