<svg width="60" height="61" viewBox="0 0 60 61" fill="none" xmlns="http://www.w3.org/2000/svg">
<g id="fi_6126362">
<g id="Outline">
<g id="Outline_2">
<path id="Vector" d="M30 54.875C30.5178 54.875 30.9375 54.4553 30.9375 53.9375C30.9375 53.4197 30.5178 53 30 53C29.4822 53 29.0625 53.4197 29.0625 53.9375C29.0625 54.4553 29.4822 54.875 30 54.875Z" fill="#1F37D2"/>
<path id="Vector_2" d="M39.9684 43.0409C44.2478 40.8098 47.655 37.2076 49.6447 32.8108C51.6344 28.414 52.0915 23.4768 50.943 18.7894C49.7944 14.102 47.1065 9.93537 43.3096 6.95646C39.5126 3.97754 34.8261 2.35852 30 2.35852C25.1739 2.35852 20.4874 3.97754 16.6904 6.95646C12.8935 9.93537 10.2056 14.102 9.05704 18.7894C7.90849 23.4768 8.36563 28.414 10.3553 32.8108C12.345 37.2076 15.7522 40.8098 20.0316 43.0409C7.98 43.9475 1.875 46.5059 1.875 50.6563C1.875 57.2422 17.1694 58.625 30 58.625C42.8306 58.625 58.125 57.2422 58.125 50.6563C58.125 46.5059 52.02 43.9475 39.9684 43.0409ZM10.3125 23.9375C10.3118 20.4018 11.2633 16.9312 13.0671 13.8902C14.8708 10.8493 17.4601 8.35012 20.5632 6.65536C23.6662 4.96061 27.1684 4.13277 30.7018 4.2588C34.2352 4.38484 37.6695 5.4601 40.6439 7.37164C43.6183 9.28318 46.023 11.9604 47.6055 15.1222C49.188 18.284 49.8898 21.8136 49.6372 25.3402C49.3846 28.8669 48.187 32.2604 46.1701 35.1644C44.1532 38.0684 41.3915 40.3756 38.175 41.8438C38.0735 41.8898 37.9809 41.9533 37.9013 42.0313L30.6169 49.3344C30.455 49.4787 30.2479 49.5619 30.0312 49.5698C29.8145 49.5777 29.6019 49.5097 29.43 49.3775L22.0988 42.0313C22.0191 41.9533 21.9265 41.8898 21.825 41.8438C18.3959 40.2707 15.4893 37.7483 13.4491 34.5749C11.4088 31.4016 10.3203 27.7101 10.3125 23.9375ZM30 56.75C13.8084 56.75 3.75 54.4147 3.75 50.6563C3.75 47.5841 10.4681 45.4503 22.1878 44.7809L24.0094 46.6053C18.1209 46.9363 10.3125 47.8953 10.3125 50.6563C10.3125 53.7763 20.2669 54.5938 26.2013 54.8084H26.235C26.4836 54.8128 26.7238 54.7182 26.9027 54.5455C27.0816 54.3727 27.1846 54.136 27.1889 53.8874C27.1933 53.6387 27.0987 53.3985 26.9259 53.2196C26.7532 53.0407 26.5165 52.9378 26.2678 52.9334C17.2922 52.6138 13.125 51.3256 12.2878 50.6563C13.1119 50 17.1534 48.7475 25.8 48.3988L28.1438 50.7519C28.6515 51.1955 29.3032 51.4394 29.9775 51.4381C30.6836 51.436 31.3646 51.1763 31.8928 50.7078L34.1972 48.3988C42.8438 48.7475 46.8881 50 47.7122 50.6563C46.8684 51.3256 42.7088 52.6138 33.7341 52.9344C33.4854 52.9387 33.2487 53.0417 33.076 53.2206C32.9032 53.3995 32.8086 53.6396 32.813 53.8883C32.8173 54.1369 32.9203 54.3737 33.0992 54.5464C33.278 54.7191 33.5182 54.8137 33.7669 54.8094H33.8006C39.7341 54.5938 49.6875 53.7763 49.6875 50.6563C49.6875 47.8963 41.88 46.9363 35.9916 46.6053L37.8122 44.7809C49.5319 45.4503 56.25 47.5841 56.25 50.6563C56.25 54.4147 46.1916 56.75 30 56.75Z" fill="#1F37D2"/>
<path id="Vector_3" d="M47.8125 23.9375C47.8125 20.4145 46.7678 16.9707 44.8106 14.0414C42.8533 11.1122 40.0714 8.82909 36.8166 7.4809C33.5617 6.13272 29.9802 5.77997 26.525 6.46727C23.0697 7.15457 19.8958 8.85105 17.4047 11.3422C14.9135 13.8333 13.2171 17.0072 12.5298 20.4625C11.8425 23.9177 12.1952 27.4992 13.5434 30.7541C14.8916 34.0089 17.1747 36.7908 20.1039 38.7481C23.0332 40.7053 26.477 41.75 30 41.75C34.7226 41.7448 39.2502 39.8665 42.5896 36.5271C45.929 33.1877 47.8073 28.6601 47.8125 23.9375ZM14.0625 23.9375C14.0625 20.7854 14.9972 17.704 16.7485 15.0831C18.4997 12.4622 20.9888 10.4194 23.901 9.21318C26.8132 8.00691 30.0177 7.69129 33.1093 8.30624C36.2008 8.92119 39.0406 10.4391 41.2695 12.668C43.4984 14.8969 45.0163 17.7367 45.6313 20.8283C46.2462 23.9198 45.9306 27.1243 44.7243 30.0365C43.5181 32.9487 41.4753 35.4378 38.8544 37.1891C36.2335 38.9403 33.1521 39.875 30 39.875C25.7746 39.8703 21.7235 38.1897 18.7357 35.2018C15.7479 32.214 14.0672 28.1629 14.0625 23.9375Z" fill="#1F37D2"/>
<path id="Vector_4" d="M34.2383 24.875C35.5508 24.9743 38.7476 25.0062 40.5195 23.2362C41.4297 22.3268 42.0729 21.185 42.379 19.9353C42.6852 18.6856 42.6425 17.3759 42.2558 16.1487C42.2063 15.9959 42.1186 15.8582 42.0011 15.7488C41.8835 15.6393 41.7399 15.5617 41.5839 15.5233C41.428 15.4849 41.2648 15.487 41.1098 15.5293C40.9549 15.5717 40.8133 15.6529 40.6986 15.7653L38.2226 18.2412L36.0129 17.7997L35.5686 15.5937L38.0445 13.1178C38.1569 13.0029 38.238 12.8613 38.2804 12.7063C38.3227 12.5513 38.3248 12.388 38.2864 12.232C38.248 12.076 38.1704 11.9324 38.061 11.8147C37.9515 11.697 37.8139 11.6093 37.6611 11.5597C36.4336 11.1736 35.1238 11.1314 33.8741 11.4376C32.6243 11.7439 31.4825 12.387 30.5726 13.2968C28.8036 15.0668 28.8354 18.2572 28.9348 19.5781L24.7161 23.7968C23.4004 25.114 21.8809 26.2103 20.2161 27.0434C19.7362 27.4626 19.3476 27.9759 19.0744 28.5515C18.8012 29.127 18.6491 29.7526 18.6276 30.3894C18.6062 31.0262 18.7158 31.6606 18.9497 32.2533C19.1835 32.8459 19.5367 33.3842 19.9872 33.8347C20.4378 34.2853 20.976 34.6384 21.5687 34.8723C22.1614 35.1062 22.7958 35.2158 23.4326 35.1943C24.0693 35.1729 24.6949 35.0208 25.2705 34.7476C25.8461 34.4743 26.3594 34.0857 26.7786 33.6059C27.608 31.9369 28.7022 30.4131 30.0186 29.0937L34.2383 24.875ZM25.1689 32.614C24.6271 33.0841 23.9295 33.335 23.2124 33.3177C22.4954 33.3003 21.8107 33.016 21.2923 32.5203C20.7833 32.009 20.4898 31.3219 20.4724 30.6007C20.4549 29.8794 20.7148 29.179 21.1986 28.6437C22.9882 27.7309 24.6229 26.5419 26.0426 25.1206L30.5754 20.5878C30.676 20.4873 30.7524 20.3653 30.7988 20.231C30.8453 20.0967 30.8606 19.9536 30.8436 19.8125C30.6308 18.0312 30.8708 15.6518 31.9011 14.6206C32.8318 13.6892 34.0836 13.1492 35.3998 13.1112L33.8904 14.6206C33.7819 14.7295 33.7017 14.8634 33.6571 15.0105C33.6125 15.1576 33.6047 15.3135 33.6345 15.4643L34.2973 18.7793C34.3337 18.9607 34.4228 19.1273 34.5536 19.258C34.6844 19.3888 34.851 19.478 35.0323 19.5143L38.3464 20.1772C38.4972 20.207 38.6531 20.1992 38.8002 20.1546C38.9474 20.1099 39.0813 20.0298 39.1901 19.9212L40.6995 18.4118C40.6613 19.7277 40.1213 20.9791 39.1901 21.9097C38.1589 22.9409 35.7739 23.1809 33.9992 22.9681C33.8581 22.9504 33.7149 22.9653 33.5805 23.0116C33.4461 23.0579 33.3241 23.1345 33.2239 23.2353L28.6911 27.7681C27.2701 29.189 26.0815 30.8237 25.1689 32.614Z" fill="#1F37D2"/>
<path id="Vector_5" d="M23.2812 31.4675C23.799 31.4675 24.2188 31.0478 24.2188 30.53C24.2188 30.0123 23.799 29.5925 23.2812 29.5925C22.7635 29.5925 22.3438 30.0123 22.3438 30.53C22.3438 31.0478 22.7635 31.4675 23.2812 31.4675Z" fill="#1F37D2"/>
</g>
</g>
</g>
</svg>
