<svg width="60" height="61" viewBox="0 0 60 61" fill="none" xmlns="http://www.w3.org/2000/svg">
<g id="fi_13778129" clip-path="url(#clip0_173_794)">
<g id="10 Quick repair">
<g id="Group">
<path id="Vector" d="M37.5055 32.6245C37.8914 30.8042 37.7772 28.9134 37.1749 27.1528C36.5726 25.3922 35.5048 23.8276 34.0848 22.6251C32.6648 21.4226 30.9457 20.6271 29.11 20.3231C27.2743 20.019 25.3905 20.2178 23.6586 20.8982C23.5137 20.955 23.3852 21.0471 23.2848 21.166C23.1843 21.2849 23.1151 21.427 23.0833 21.5794C23.0515 21.7317 23.0581 21.8896 23.1026 22.0388C23.147 22.188 23.2279 22.3237 23.338 22.4338L26.5255 25.6213C26.7023 25.7921 26.9391 25.8866 27.185 25.8845C27.4308 25.8823 27.6659 25.7837 27.8397 25.6099C28.0135 25.4361 28.1121 25.201 28.1143 24.9551C28.1164 24.7093 28.0219 24.4725 27.8511 24.2957L25.7793 22.2238C27.1852 21.9432 28.6396 22.0259 30.0047 22.4641C31.3698 22.9023 32.6005 23.6816 33.5804 24.7281C34.5603 25.7747 35.257 27.054 35.6046 28.4449C35.9522 29.8358 35.9392 31.2925 35.5668 32.677C35.5246 32.8357 35.525 33.0028 35.5678 33.1614C35.6106 33.32 35.6943 33.4646 35.8105 33.5807L49.9668 47.737C50.1436 47.9077 50.3804 48.0022 50.6262 48.0001C50.872 47.998 51.1071 47.8994 51.281 47.7255C51.4548 47.5517 51.5534 47.3166 51.5555 47.0708C51.5577 46.825 51.4632 46.5881 51.2924 46.4113L37.5055 32.6245Z" fill="#1F37D2"/>
<path id="Vector_2" d="M24.1086 33.8113C24.2314 33.9348 24.3863 34.0214 24.5558 34.0613C24.7253 34.1013 24.9026 34.0929 25.0676 34.0372L29.0445 32.7116C29.1825 32.6655 29.3078 32.588 29.4106 32.4852C29.5135 32.3824 29.591 32.257 29.637 32.1191L30.9636 28.1412C31.0025 28.0243 31.018 27.9008 31.0091 27.7779C31.0003 27.6549 30.9674 27.5349 30.9122 27.4247C30.857 27.3145 30.7806 27.2162 30.6875 27.1355C30.5943 27.0548 30.4862 26.9933 30.3692 26.9544C30.2522 26.9155 30.1288 26.9 30.0058 26.9088C29.8829 26.9176 29.7629 26.9506 29.6527 27.0058C29.5424 27.0609 29.4442 27.1373 29.3635 27.2305C29.2828 27.3236 29.2212 27.4318 29.1823 27.5487L28.0076 31.0812L25.0245 32.0759L19.3601 26.4116C19.25 26.3017 19.1144 26.221 18.9653 26.1766C18.8162 26.1323 18.6585 26.1257 18.5062 26.1575C18.354 26.1893 18.2121 26.2585 18.0932 26.3588C17.9744 26.4591 17.8824 26.5874 17.8254 26.7322C17.1447 28.464 16.9458 30.3478 17.2497 32.1835C17.5535 34.0193 18.349 35.7385 19.5514 37.1585C20.7539 38.5785 22.3185 39.6464 24.0791 40.2486C25.8397 40.8509 27.7305 40.9651 29.5508 40.5791L32.7261 43.7544C32.9029 43.9251 33.1397 44.0196 33.3855 44.0175C33.6313 44.0154 33.8665 43.9168 34.0403 43.743C34.2141 43.5691 34.3127 43.334 34.3148 43.0882C34.317 42.8424 34.2225 42.6056 34.0517 42.4287L30.5061 38.8831C30.3898 38.7669 30.245 38.6833 30.0862 38.6406C29.9274 38.598 29.7602 38.5979 29.6014 38.6403C28.217 39.0123 26.7606 39.025 25.37 38.6773C23.9793 38.3295 22.7003 37.6327 21.654 36.6529C20.6077 35.673 19.8286 34.4425 19.3905 33.0776C18.9524 31.7127 18.8696 30.2586 19.1501 28.8528L24.1086 33.8113Z" fill="#1F37D2"/>
<path id="Vector_3" d="M36.7031 45.081C36.5262 44.9103 36.2894 44.8158 36.0436 44.8179C35.7978 44.82 35.5627 44.9186 35.3888 45.0925C35.215 45.2663 35.1164 45.5014 35.1143 45.7472C35.1122 45.993 35.2067 46.2298 35.3774 46.4067L43.3331 54.3613C43.5099 54.5321 43.7467 54.6266 43.9925 54.6245C44.2383 54.6223 44.4734 54.5238 44.6473 54.3499C44.8211 54.1761 44.9197 53.941 44.9218 53.6952C44.9239 53.4494 44.8294 53.2125 44.6587 53.0357L36.7031 45.081Z" fill="#1F37D2"/>
<path id="Vector_4" d="M34.3453 48.8384C33.2683 49.2602 32.1562 49.5862 31.0219 49.8125C30.8401 49.8486 30.673 49.9377 30.5418 50.0687C30.4107 50.1997 30.3213 50.3667 30.285 50.5484L29.2313 55.8125H25.1437L24.0938 50.5456C24.0574 50.3638 23.9681 50.1969 23.8369 50.0659C23.7057 49.9349 23.5387 49.8458 23.3569 49.8097C20.8174 49.3083 18.4032 48.306 16.2553 46.8612C16.1012 46.7583 15.9199 46.7033 15.7345 46.7033C15.5491 46.7033 15.3679 46.7583 15.2138 46.8612L10.7372 49.8453L7.84406 46.9531L10.8272 42.4775C10.9304 42.3232 10.9855 42.1418 10.9855 41.9563C10.9855 41.7707 10.9304 41.5893 10.8272 41.435C9.38132 39.2877 8.37772 36.8738 7.875 34.3344C7.83899 34.1527 7.74996 33.9857 7.61915 33.8546C7.48833 33.7234 7.3216 33.634 7.14 33.5975L1.875 32.5438V28.4562L7.14188 27.4062C7.32364 27.3692 7.49032 27.279 7.62082 27.1472C7.75133 27.0153 7.83978 26.8478 7.875 26.6656C8.37658 24.1265 9.37889 21.7126 10.8234 19.565C10.9266 19.4107 10.9817 19.2293 10.9817 19.0438C10.9817 18.8582 10.9266 18.6768 10.8234 18.5225L7.84406 14.0469L10.7334 11.1556L15.21 14.1397C15.3642 14.2427 15.5454 14.2976 15.7308 14.2976C15.9162 14.2976 16.0974 14.2427 16.2516 14.1397C18.3991 12.6937 20.8133 11.6901 23.3531 11.1875C23.5349 11.1514 23.702 11.0623 23.8332 10.9313C23.9643 10.8003 24.0537 10.6333 24.09 10.4516L25.1437 5.1875H29.2313L30.2812 10.4544C30.3176 10.6362 30.4069 10.8031 30.5381 10.9341C30.6693 11.0651 30.8363 11.1542 31.0181 11.1903C33.5576 11.6917 35.9718 12.694 38.1197 14.1388C38.2738 14.2417 38.4551 14.2967 38.6405 14.2967C38.8259 14.2967 39.0071 14.2417 39.1613 14.1388L43.6378 11.1547L46.5272 14.0459L43.5441 18.5216C43.4732 18.6239 43.4235 18.7394 43.3977 18.8612C43.372 18.983 43.3708 19.1087 43.3941 19.231C43.4175 19.3533 43.465 19.4697 43.5338 19.5734C43.6026 19.6771 43.6915 19.7661 43.795 19.8352C43.8986 19.9042 44.015 19.9519 44.1372 19.9755C44.2594 19.9991 44.3851 19.9982 44.507 19.9727C44.6288 19.9472 44.7444 19.8977 44.8469 19.827C44.9494 19.7564 45.0368 19.666 45.1041 19.5613L48.5138 14.4462C48.634 14.2659 48.6881 14.0494 48.6667 13.8337C48.6453 13.618 48.5499 13.4164 48.3966 13.2631L44.4234 9.28719C44.2702 9.13389 44.0685 9.03843 43.8528 9.01706C43.6371 8.9957 43.4207 9.04974 43.2403 9.17L38.6391 12.2375C36.5983 10.9509 34.3544 10.0193 32.0025 9.48219L30.9187 4.0625C30.8755 3.85074 30.7605 3.66043 30.593 3.52376C30.4256 3.38708 30.2161 3.31246 30 3.3125H24.375C24.1589 3.31246 23.9494 3.38708 23.782 3.52376C23.6145 3.66043 23.4995 3.85074 23.4563 4.0625L22.3725 9.48219C20.0206 10.0193 17.7767 10.9509 15.7359 12.2375L11.1347 9.17C10.9543 9.04974 10.7379 8.9957 10.5222 9.01706C10.3065 9.03843 10.1048 9.13389 9.95156 9.28719L5.97469 13.2641C5.82139 13.4173 5.72593 13.619 5.70456 13.8347C5.68319 14.0504 5.73724 14.2668 5.8575 14.4472L8.925 19.0494C7.63783 21.0895 6.70617 23.3332 6.16969 25.685L0.75 26.7688C0.538244 26.812 0.347926 26.927 0.211255 27.0945C0.0745844 27.2619 -4.40907e-05 27.4714 1.95428e-08 27.6875V33.3125C-4.40907e-05 33.5286 0.0745844 33.7381 0.211255 33.9055C0.347926 34.073 0.538244 34.188 0.75 34.2312L6.16594 35.315C6.70358 37.667 7.63652 39.9108 8.925 41.9506L5.8575 46.5528C5.73724 46.7332 5.68319 46.9496 5.70456 47.1653C5.72593 47.381 5.82139 47.5827 5.97469 47.7359L9.95156 51.7128C10.1048 51.8661 10.3065 51.9616 10.5222 51.9829C10.7379 52.0043 10.9543 51.9503 11.1347 51.83L15.7359 48.7625C17.7767 50.0491 20.0206 50.9807 22.3725 51.5178L23.4563 56.9375C23.4995 57.1493 23.6145 57.3396 23.782 57.4762C23.9494 57.6129 24.1589 57.6875 24.375 57.6875H30C30.2161 57.6875 30.4256 57.6129 30.593 57.4762C30.7605 57.3396 30.8755 57.1493 30.9187 56.9375L32.0025 51.5206C33.0333 51.2853 34.0452 50.9735 35.0297 50.5878C35.2603 50.4964 35.4452 50.3174 35.5441 50.0899C35.6429 49.8624 35.6476 49.605 35.5571 49.3741C35.4665 49.1432 35.2882 48.9575 35.0611 48.8578C34.8339 48.7581 34.5766 48.7525 34.3453 48.8422V48.8384Z" fill="#1F37D2"/>
<path id="Vector_5" d="M49.6875 23.9375H59.0625C59.3111 23.9375 59.5496 23.8387 59.7254 23.6629C59.9012 23.4871 60 23.2486 60 23C60 22.7514 59.9012 22.5129 59.7254 22.3371C59.5496 22.1613 59.3111 22.0625 59.0625 22.0625H49.6875C49.4389 22.0625 49.2004 22.1613 49.0246 22.3371C48.8488 22.5129 48.75 22.7514 48.75 23C48.75 23.2486 48.8488 23.4871 49.0246 23.6629C49.2004 23.8387 49.4389 23.9375 49.6875 23.9375Z" fill="#1F37D2"/>
<path id="Vector_6" d="M57.1875 28.625C57.1875 28.3764 57.0887 28.1379 56.9129 27.9621C56.7371 27.7863 56.4986 27.6875 56.25 27.6875H43.125C42.8764 27.6875 42.6379 27.7863 42.4621 27.9621C42.2863 28.1379 42.1875 28.3764 42.1875 28.625C42.1875 28.8736 42.2863 29.1121 42.4621 29.2879C42.6379 29.4637 42.8764 29.5625 43.125 29.5625H56.25C56.4986 29.5625 56.7371 29.4637 56.9129 29.2879C57.0887 29.1121 57.1875 28.8736 57.1875 28.625Z" fill="#1F37D2"/>
<path id="Vector_7" d="M45.9375 35.1875H57.1875C57.4361 35.1875 57.6746 35.0887 57.8504 34.9129C58.0262 34.7371 58.125 34.4986 58.125 34.25C58.125 34.0014 58.0262 33.7629 57.8504 33.5871C57.6746 33.4113 57.4361 33.3125 57.1875 33.3125H45.9375C45.6889 33.3125 45.4504 33.4113 45.2746 33.5871C45.0988 33.7629 45 34.0014 45 34.25C45 34.4986 45.0988 34.7371 45.2746 34.9129C45.4504 35.0887 45.6889 35.1875 45.9375 35.1875Z" fill="#1F37D2"/>
<path id="Vector_8" d="M59.0625 38.9375H49.6875C49.4389 38.9375 49.2004 39.0363 49.0246 39.2121C48.8488 39.3879 48.75 39.6264 48.75 39.875C48.75 40.1236 48.8488 40.3621 49.0246 40.5379C49.2004 40.7137 49.4389 40.8125 49.6875 40.8125H59.0625C59.3111 40.8125 59.5496 40.7137 59.7254 40.5379C59.9012 40.3621 60 40.1236 60 39.875C60 39.6264 59.9012 39.3879 59.7254 39.2121C59.5496 39.0363 59.3111 38.9375 59.0625 38.9375Z" fill="#1F37D2"/>
</g>
</g>
</g>
<defs>
<clipPath id="clip0_173_794">
<rect width="60" height="60" fill="white" transform="translate(0 0.5)"/>
</clipPath>
</defs>
</svg>
