<svg width="81" height="80" viewBox="0 0 81 80" fill="none" xmlns="http://www.w3.org/2000/svg">
<g id="fi_4983471">
<g id="OUTLINE">
<path id="Vector" d="M76.75 36.25H75.5V27.5C75.5 27.3358 75.4677 27.1733 75.4049 27.0216C75.342 26.87 75.25 26.7322 75.1339 26.6161C75.0178 26.5 74.88 26.408 74.7284 26.3451C74.5767 26.2823 74.4142 26.25 74.25 26.25H28C27.8358 26.25 27.6733 26.2823 27.5216 26.3451C27.37 26.408 27.2322 26.5 27.1161 26.6161C27 26.7322 26.908 26.87 26.8451 27.0216C26.7823 27.1733 26.75 27.3358 26.75 27.5V32.2049C26.3524 32.4549 25.984 32.7486 25.6517 33.0806L23.7323 35H19.25V33.75C19.25 33.5858 19.2177 33.4233 19.1549 33.2716C19.092 33.12 19 32.9822 18.8839 32.8661C18.7678 32.75 18.63 32.658 18.4784 32.5951C18.3267 32.5323 18.1642 32.5 18 32.5H4.25C3.91848 32.5 3.60054 32.6317 3.36612 32.8661C3.1317 33.1005 3 33.4185 3 33.75C3 34.0815 3.1317 34.3995 3.36612 34.6339C3.60054 34.8683 3.91848 35 4.25 35H9.25V50H4.25C3.91848 50 3.60054 50.1317 3.36612 50.3661C3.1317 50.6005 3 50.9185 3 51.25C3 51.5815 3.1317 51.8995 3.36612 52.1339C3.60054 52.3683 3.91848 52.5 4.25 52.5H18C18.1642 52.5 18.3267 52.4677 18.4784 52.4049C18.63 52.342 18.7678 52.25 18.8839 52.1339C19 52.0178 19.092 51.88 19.1549 51.7284C19.2177 51.5767 19.25 51.4142 19.25 51.25V50H23.8715L26.047 51.4503C27.0731 52.1358 28.2798 52.5012 29.5139 52.5H51.75C51.9142 52.5 52.0767 52.4677 52.2284 52.4049C52.38 52.342 52.5178 52.25 52.6339 52.1339C52.75 52.0178 52.842 51.88 52.9049 51.7284C52.9677 51.5767 53 51.4142 53 51.25H76.75C76.9142 51.25 77.0767 51.2177 77.2284 51.1549C77.38 51.092 77.5178 51 77.6339 50.8839C77.75 50.7678 77.842 50.63 77.9049 50.4784C77.9677 50.3267 78 50.1642 78 50V37.5C78 37.3358 77.9677 37.1733 77.9049 37.0216C77.842 36.87 77.75 36.7322 77.6339 36.6161C77.5178 36.5 77.38 36.408 77.2284 36.3451C77.0767 36.2823 76.9142 36.25 76.75 36.25ZM29.25 28.75H73V36.25H40.4966C41.3113 35.1697 41.7514 33.8531 41.75 32.5C41.75 32.3358 41.7177 32.1733 41.6549 32.0216C41.592 31.87 41.5 31.7322 41.3839 31.6161C41.2678 31.5 41.13 31.408 40.9784 31.3451C40.8267 31.2823 40.6642 31.25 40.5 31.25H30.0711C29.7965 31.2505 29.5222 31.2688 29.25 31.3048V28.75ZM16.75 50H11.75V35H16.75V50ZM29.5139 50C28.7735 50.0007 28.0495 49.7815 27.4338 49.3702L24.9434 47.71C24.738 47.573 24.4968 47.5 24.25 47.5H19.25V37.5H24.25C24.4142 37.5 24.5767 37.4677 24.7284 37.4049C24.88 37.342 25.0178 37.2499 25.1339 37.1339L27.4194 34.8483C27.7668 34.499 28.1801 34.2221 28.6352 34.0336C29.0904 33.845 29.5784 33.7487 30.0711 33.75H39.0358C38.7764 34.4806 38.2974 35.1132 37.6644 35.5608C37.0313 36.0083 36.2753 36.2491 35.5 36.25H29.25C28.9185 36.25 28.6005 36.3817 28.3661 36.6161C28.1317 36.8505 28 37.1685 28 37.5C28 37.8315 28.1317 38.1495 28.3661 38.3839C28.6005 38.6183 28.9185 38.75 29.25 38.75H31.455L48.427 47.236C48.9615 47.5009 49.4245 47.8901 49.7773 48.3711C50.13 48.8521 50.3622 49.4107 50.4542 50H29.5139ZM75.5 48.75H52.7239C52.4771 47.9415 52.0678 47.192 51.5212 46.5472C50.9746 45.9024 50.3022 45.3759 49.5451 45L37.045 38.75H75.5V48.75Z" fill="#1F37D2" stroke="white" stroke-width="0.8"/>
<path id="Vector_2" d="M71.75 42.5H54.25C53.9185 42.5 53.6005 42.6317 53.3661 42.8661C53.1317 43.1005 53 43.4185 53 43.75C53 44.0815 53.1317 44.3995 53.3661 44.6339C53.6005 44.8683 53.9185 45 54.25 45H71.75C72.0815 45 72.3995 44.8683 72.6339 44.6339C72.8683 44.3995 73 44.0815 73 43.75C73 43.4185 72.8683 43.1005 72.6339 42.8661C72.3995 42.6317 72.0815 42.5 71.75 42.5Z" fill="#1F37D2" stroke="white" stroke-width="0.8"/>
<path id="Vector_3" d="M45.5 33.75H69.25C69.5815 33.75 69.8995 33.6183 70.1339 33.3839C70.3683 33.1495 70.5 32.8315 70.5 32.5C70.5 32.1685 70.3683 31.8505 70.1339 31.6161C69.8995 31.3817 69.5815 31.25 69.25 31.25H45.5C45.1685 31.25 44.8505 31.3817 44.6161 31.6161C44.3817 31.8505 44.25 32.1685 44.25 32.5C44.25 32.8315 44.3817 33.1495 44.6161 33.3839C44.8505 33.6183 45.1685 33.75 45.5 33.75Z" fill="#1F37D2" stroke="white" stroke-width="0.8"/>
<path id="Vector_4" d="M25.0335 26.2504C25.2306 26.2503 25.4248 26.2036 25.6005 26.1142C25.7761 26.0247 25.9281 25.8951 26.0441 25.7357C26.1601 25.5764 26.2368 25.3919 26.2679 25.1972C26.299 25.0026 26.2838 24.8034 26.2233 24.6158C25.871 23.5234 25.646 22.3941 25.5525 21.2501H26.75C27.0815 21.2501 27.3995 21.1184 27.6339 20.884C27.8683 20.6496 28 20.3316 28 20.0001C28 19.6686 27.8683 19.3506 27.6339 19.1162C27.3995 18.8818 27.0815 18.7501 26.75 18.7501H25.5525C25.8105 15.6436 27.0341 12.6957 29.0518 10.3196L29.6161 10.884C29.7322 11.0002 29.87 11.0923 30.0217 11.1553C30.1734 11.2182 30.336 11.2506 30.5002 11.2506C30.6644 11.2507 30.827 11.2184 30.9787 11.1556C31.1305 11.0927 31.2683 11.0006 31.3844 10.8845C31.5005 10.7684 31.5926 10.6305 31.6555 10.4788C31.7183 10.3271 31.7506 10.1645 31.7505 10.0003C31.7505 9.83605 31.7181 9.67345 31.6552 9.52177C31.5922 9.37008 31.5001 9.23228 31.3839 9.11623L30.8196 8.55192C33.1956 6.53424 36.1435 5.31063 39.25 5.05262V6.2501C39.25 6.58162 39.3817 6.89956 39.6161 7.13398C39.8505 7.3684 40.1685 7.5001 40.5 7.5001C40.8315 7.5001 41.1495 7.3684 41.3839 7.13398C41.6183 6.89956 41.75 6.58162 41.75 6.2501V5.05262C44.8565 5.31063 47.8044 6.53423 50.1805 8.55192L49.6161 9.11623C49.5 9.23228 49.4078 9.37008 49.3449 9.52177C49.2819 9.67345 49.2495 9.83605 49.2495 10.0003C49.2494 10.1645 49.2817 10.3271 49.3445 10.4788C49.4074 10.6305 49.4995 10.7684 49.6156 10.8845C49.7317 11.0006 49.8696 11.0927 50.0213 11.1556C50.173 11.2184 50.3356 11.2507 50.4998 11.2506C50.6641 11.2506 50.8267 11.2182 50.9783 11.1553C51.13 11.0923 51.2678 11.0002 51.3839 10.884L51.9482 10.3196C53.9659 12.6957 55.1895 15.6436 55.4475 18.7501H54.25C53.9185 18.7501 53.6005 18.8818 53.3661 19.1162C53.1317 19.3506 53 19.6686 53 20.0001C53 20.3316 53.1317 20.6496 53.3661 20.884C53.6005 21.1184 53.9185 21.2501 54.25 21.2501H55.4477C55.3867 21.9953 55.27 22.735 55.0987 23.4628C55.0228 23.7853 55.0781 24.1247 55.2524 24.4065C55.4267 24.6883 55.7057 24.8894 56.0281 24.9655C56.3506 25.0417 56.6901 24.9867 56.972 24.8127C57.254 24.6387 57.4553 24.3598 57.5317 24.0374C58.1522 21.4104 58.1567 18.6755 57.5447 16.0465C56.9327 13.4176 55.7208 10.9658 54.0039 8.88295C52.2869 6.80011 50.1114 5.14267 47.6476 4.04024C45.1837 2.93782 42.4982 2.42029 39.801 2.52813C37.1039 2.63598 34.4683 3.36627 32.1003 4.66189C29.7323 5.95752 27.6961 7.78336 26.1509 9.99663C24.6058 12.2099 23.5935 14.7506 23.1934 17.4201C22.7932 20.0895 23.016 22.8153 23.8443 25.3844C23.9255 25.6359 24.0844 25.8552 24.2981 26.0108C24.5117 26.1664 24.7692 26.2503 25.0335 26.2504Z" fill="#1F37D2" stroke="white" stroke-width="0.8"/>
<path id="Vector_5" d="M40.5 10C40.3359 10 40.1733 10.0323 40.0217 10.0951C39.87 10.158 39.7322 10.25 39.6161 10.3661C39.5 10.4822 39.408 10.62 39.3452 10.7716C39.2823 10.9233 39.25 11.0858 39.25 11.25V18.9752L34.0049 20.0243C33.8438 20.0563 33.6906 20.1198 33.5541 20.2112C33.4176 20.3025 33.3004 20.4198 33.2092 20.5564C33.1181 20.693 33.0547 20.8462 33.0228 21.0074C32.9909 21.1685 32.9911 21.3343 33.0233 21.4953C33.0555 21.6564 33.1191 21.8095 33.2105 21.9459C33.302 22.0824 33.4194 22.1995 33.5561 22.2905C33.6927 22.3816 33.846 22.4448 34.0072 22.4766C34.1683 22.5084 34.3341 22.5081 34.4951 22.4757L40.7451 21.2257C41.0285 21.1691 41.2835 21.016 41.4667 20.7925C41.6499 20.569 41.75 20.289 41.75 20V11.25C41.75 11.0858 41.7177 10.9233 41.6549 10.7716C41.5921 10.62 41.5 10.4822 41.3839 10.3661C41.2678 10.25 41.13 10.158 40.9784 10.0951C40.8267 10.0323 40.6642 10 40.5 10Z" fill="#1F37D2" stroke="white" stroke-width="0.8"/>
<path id="Vector_6" d="M56.75 7.5H63C63.3315 7.5 63.6495 7.3683 63.8839 7.13388C64.1183 6.89946 64.25 6.58152 64.25 6.25C64.25 5.91848 64.1183 5.60054 63.8839 5.36612C63.6495 5.1317 63.3315 5 63 5H56.75C56.4185 5 56.1005 5.1317 55.8661 5.36612C55.6317 5.60054 55.5 5.91848 55.5 6.25C55.5 6.58152 55.6317 6.89946 55.8661 7.13388C56.1005 7.3683 56.4185 7.5 56.75 7.5Z" fill="#1F37D2" stroke="white" stroke-width="0.8"/>
<path id="Vector_7" d="M59.25 11.25C59.25 11.4142 59.2823 11.5767 59.3451 11.7284C59.408 11.88 59.5 12.0178 59.6161 12.1339C59.7322 12.25 59.87 12.342 60.0216 12.4049C60.1733 12.4677 60.3358 12.5 60.5 12.5H68C68.3315 12.5 68.6495 12.3683 68.8839 12.1339C69.1183 11.8995 69.25 11.5815 69.25 11.25C69.25 10.9185 69.1183 10.6005 68.8839 10.3661C68.6495 10.1317 68.3315 10 68 10H60.5C60.3358 10 60.1733 10.0323 60.0216 10.0951C59.87 10.158 59.7322 10.25 59.6161 10.3661C59.5 10.4822 59.408 10.62 59.3451 10.7716C59.2823 10.9233 59.25 11.0858 59.25 11.25Z" fill="#1F37D2" stroke="white" stroke-width="0.8"/>
<path id="Vector_8" d="M61.75 16.25C61.75 16.4142 61.7823 16.5767 61.8451 16.7284C61.908 16.88 62 17.0178 62.1161 17.1339C62.2322 17.25 62.37 17.342 62.5216 17.4049C62.6733 17.4677 62.8358 17.5 63 17.5H73C73.3315 17.5 73.6495 17.3683 73.8839 17.1339C74.1183 16.8995 74.25 16.5815 74.25 16.25C74.25 15.9185 74.1183 15.6005 73.8839 15.3661C73.6495 15.1317 73.3315 15 73 15H63C62.8358 15 62.6733 15.0323 62.5216 15.0951C62.37 15.158 62.2322 15.25 62.1161 15.3661C62 15.4822 61.908 15.62 61.8451 15.7716C61.7823 15.9233 61.75 16.0858 61.75 16.25Z" fill="#1F37D2" stroke="white" stroke-width="0.8"/>
<path id="Vector_9" d="M76.75 60C77.0815 60 77.3994 59.8683 77.6339 59.6339C77.8683 59.3995 78 59.0815 78 58.75C78 58.4185 77.8683 58.1006 77.6339 57.8661C77.3994 57.6317 77.0815 57.5 76.75 57.5H60.5C60.3358 57.5 60.1733 57.5324 60.0216 57.5952C59.8699 57.658 59.7321 57.7501 59.6161 57.8661C59.5 57.9822 59.4079 58.12 59.3451 58.2717C59.2823 58.4233 59.25 58.5859 59.25 58.75V60H54.7677L52.8483 58.0806C52.2693 57.4984 51.5806 57.0368 50.822 56.7226C50.0634 56.4084 49.25 56.2478 48.4289 56.25H38C37.8358 56.25 37.6733 56.2823 37.5216 56.3452C37.3699 56.408 37.2321 56.5001 37.1161 56.6161C37 56.7322 36.9079 56.87 36.8451 57.0217C36.7823 57.1733 36.75 57.3359 36.75 57.5C36.7519 59.0944 37.3624 60.6278 38.4568 61.7873C39.5511 62.9468 41.0468 63.6448 42.6383 63.7388L38.9073 66.2261L22.6315 65.2089C21.4067 65.1314 20.1862 65.4166 19.1226 66.0289C18.0591 66.6413 17.1996 67.5535 16.6516 68.6517L15.632 70.691C15.5452 70.8646 15.5 71.056 15.5 71.25C15.5 71.4441 15.5452 71.6355 15.632 71.809C15.7187 71.9826 15.8447 72.1336 16 72.25C16.1552 72.3665 16.3354 72.4452 16.5264 72.4799L42.9655 77.287C43.8395 77.4472 44.7376 77.4179 45.5993 77.2012L54.4039 75H59.25V76.25C59.25 76.4142 59.2823 76.5767 59.3451 76.7284C59.4079 76.88 59.5 77.0178 59.6161 77.1339C59.7321 77.25 59.8699 77.3421 60.0216 77.4049C60.1733 77.4677 60.3358 77.5 60.5 77.5H76.75C77.0815 77.5 77.3994 77.3683 77.6339 77.1339C77.8683 76.8995 78 76.5815 78 76.25C78 75.9185 77.8683 75.6006 77.6339 75.3661C77.3994 75.1317 77.0815 75 76.75 75H69.25V60H76.75ZM54.25 72.5C54.1478 72.5 54.0459 72.5125 53.9468 72.5373L44.993 74.7758C44.476 74.9058 43.937 74.9233 43.4126 74.8273L18.6134 70.3183L18.8876 69.7697C19.2164 69.1108 19.7321 68.5634 20.3703 68.196C21.0085 67.8286 21.7408 67.6575 22.4757 67.704L39.172 68.7476C39.4449 68.7645 39.7158 68.6916 39.9433 68.5401L47.1284 63.75H49.25C49.5815 63.75 49.8994 63.6183 50.1339 63.3839C50.3683 63.1495 50.5 62.8315 50.5 62.5C50.5 62.1685 50.3683 61.8506 50.1339 61.6161C49.8994 61.3817 49.5815 61.25 49.25 61.25H46.759C46.7571 61.25 46.7552 61.25 46.7533 61.25H43C42.2247 61.2491 41.4686 61.0084 40.8356 60.5608C40.2026 60.1132 39.7235 59.4807 39.4642 58.75H48.4289C48.9215 58.7487 49.4096 58.8451 49.8647 59.0336C50.3199 59.2221 50.7331 59.4991 51.0806 59.8484L53.3661 62.1339C53.4822 62.25 53.62 62.3421 53.7716 62.4049C53.9233 62.4677 54.0858 62.5 54.25 62.5H59.25V72.5H54.25ZM66.75 75H61.75V60H66.75V75Z" fill="#1F37D2" stroke="white" stroke-width="0.8"/>
</g>
</g>
</svg>
