<svg width="40" height="40" viewBox="0 0 40 40" fill="none" xmlns="http://www.w3.org/2000/svg">
<g id="fi_16168654">
<g id="Layer_x0020_1">
<path id="Vector" fill-rule="evenodd" clip-rule="evenodd" d="M29.9517 13.1211C29.3796 12.6229 28.4753 12.143 27.1281 12.143C24.3231 12.143 21.8409 12.143 21.8409 12.143C21.8409 12.143 19.5157 12.06 19.5157 9.33797C19.5157 6.61594 19.5157 4.52136 19.5157 4.52136C19.5157 4.52136 19.1927 2.59287 18.556 2.03924C18.4545 1.95619 18.4453 1.90083 18.4914 1.8916C18.4822 1.8916 18.473 1.90083 18.473 1.90083L29.9517 12.9919V13.1119V13.1211ZM18.6944 1.90083C18.7221 1.91006 18.7406 1.91006 18.7683 1.91928C18.7406 1.91006 18.7129 1.91006 18.6944 1.90083ZM18.7775 1.91928L18.8605 1.94696C18.8329 1.93774 18.8052 1.92851 18.7775 1.91928ZM19.2481 2.08537C19.285 2.10383 19.3311 2.12228 19.3773 2.14074C19.3311 2.12228 19.2942 2.10383 19.2481 2.08537Z" fill="url(#paint0_linear_241_1763)"/>
<path id="Vector_2" fill-rule="evenodd" clip-rule="evenodd" d="M15.2796 1.40259H10.7675H8.2023H5.58177C5.58177 1.40259 5.5264 1.40259 5.43413 1.40259H4.69595C3.37646 1.40259 2.29688 2.48217 2.29688 3.80167V4.7613V6.20074V6.2192V6.27456V6.29301V6.36683V6.49601V6.65288V6.83742V7.02197V7.05887V7.30801V7.42796V7.59405V7.85241V7.89855V8.23073V8.29532V8.59059V8.76591V8.97814V9.24572V9.38413V9.75322V9.81781V10.2699V10.2792V10.7405V10.8144V11.2296V11.368V11.7371V11.9216V12.2538V12.4937V12.789V13.0842V13.3426V13.684V13.9055V14.2838V14.4776V14.8928V15.0773V15.5295V15.6863V16.1661V16.3045V16.812V16.932V17.458V17.5687V17.6517V18.1039V18.1961V18.7405V18.8328V19.3864V19.4695V19.7463V20.0231V20.1062V20.383V20.6598V20.7428V21.2965V21.3887V21.9332V22.0254V22.5698V22.6806V22.8466V36.2999C2.29688 37.6102 3.34878 38.6713 4.64982 38.699H4.65904H4.66827H4.6775H4.68672H4.69595H4.70518H4.71441H5.54486H10.7859H7.87012H16.0916H28.3638C29.6833 38.699 30.7628 37.6194 30.7628 36.2999V19.7463V16.8213C30.7628 13.2134 27.644 13.0566 27.644 13.0566C27.644 13.0566 24.839 13.0566 21.7202 13.0566C18.6014 13.0566 18.6752 9.85472 18.6752 9.85472C18.6752 9.85472 18.6752 8.64596 18.6752 4.97352C18.6752 1.28263 15.3073 1.44872 15.3073 1.44872L15.2888 1.43027L15.2796 1.40259ZM29.9693 13.1212C29.3972 12.6137 28.493 12.1431 27.1458 12.1431C24.3407 12.1431 21.8586 12.1431 21.8586 12.1431C21.8586 12.1431 19.5333 12.06 19.5333 9.338C19.5333 6.61597 19.5333 4.52139 19.5333 4.52139C19.5333 4.52139 19.2104 2.5929 18.5737 2.03927C18.4999 1.97468 18.4722 1.92854 18.4906 1.90086L29.9601 12.9827V12.8628C26.9705 8.34146 24.4791 6.10847 22.7259 4.3553C21.8863 3.51562 20.862 2.86049 20.0316 2.43604C20.8713 2.86049 21.8955 3.51562 22.7444 4.36453C24.4976 6.1177 26.9889 8.35068 29.9785 12.872V13.1119V13.1212H29.9693Z" fill="#E31E24"/>
<path id="Vector_3" d="M7.62109 20.2538H10.8783C11.5888 20.2538 12.1147 20.4199 12.4746 20.7613C12.8345 21.1027 13.0006 21.5733 13.0006 22.2007C13.0006 22.8374 12.7976 23.3357 12.4192 23.6956C12.0317 24.0554 11.4504 24.24 10.6568 24.24H9.58649V26.5837H7.62109V20.263V20.2538ZM9.58649 22.9574H10.0663C10.4539 22.9574 10.703 22.8836 10.8598 22.7544C11.0167 22.6252 11.0905 22.4591 11.0905 22.2561C11.0905 22.0531 11.0167 21.887 10.8875 21.7486C10.7583 21.6102 10.5 21.5364 10.1309 21.5364H9.57726V22.9389V22.9574H9.58649ZM14.034 20.2538H16.9314C17.5034 20.2538 17.9648 20.3276 18.3247 20.4845C18.6845 20.6413 18.9613 20.872 19.2013 21.1488C19.4319 21.4441 19.598 21.7763 19.6995 22.1546C19.801 22.5422 19.8564 22.9482 19.8564 23.3726C19.8564 24.0554 19.7826 24.5629 19.6257 24.9505C19.4688 25.3195 19.2566 25.6333 18.989 25.8916C18.7214 26.15 18.4169 26.3161 18.1032 26.3899C17.6788 26.5006 17.2912 26.556 16.9406 26.556H14.0432V20.2354L14.0248 20.2538H14.034ZM15.981 21.6933V25.1442H16.4608C16.876 25.1442 17.1528 25.0981 17.3466 25.0058C17.5127 24.9228 17.6603 24.7475 17.7618 24.5352C17.8633 24.3046 17.9002 23.9355 17.9002 23.4372C17.9002 22.7728 17.7895 22.3115 17.5773 22.0623C17.365 21.8224 16.9959 21.6933 16.4792 21.6933H15.9994H15.981ZM20.8806 20.2538H25.7157V21.6194H22.846V22.7267H25.3004V24.0093H22.846V26.5837H20.8806V20.263V20.2538Z" fill="white"/>
</g>
</g>
<defs>
<linearGradient id="paint0_linear_241_1763" x1="28.2823" y1="1.67762" x2="20.1191" y2="13.326" gradientUnits="userSpaceOnUse">
<stop stop-color="#A42421"/>
<stop offset="1" stop-color="#E31E24"/>
</linearGradient>
</defs>
</svg>
