<svg width="137" height="45" viewBox="0 0 137 45" fill="none" xmlns="http://www.w3.org/2000/svg">
<g id="logo (3) 1" clip-path="url(#clip0_209_725)">
<g id="Clip path group">
<mask id="mask0_209_725" style="mask-type:luminance" maskUnits="userSpaceOnUse" x="0" y="0" width="137" height="45">
<g id="clip0_3394_2351">
<path id="Vector" d="M136.179 0H0.5V44.9151H136.179V0Z" fill="white"/>
</g>
</mask>
<g mask="url(#mask0_209_725)">
<g id="Group">
<path id="Vector_2" d="M36.0755 3.14151L19.0943 0C18.9245 0 18.6698 0 18.5 0L1.77358 3.14151C1.00943 3.31132 0.5 3.99057 0.5 4.75472V22.6698C0.5 34.217 6.4434 41.6887 18.1604 44.8302C18.2453 44.8302 18.3302 44.9151 18.4151 44.9151C18.5 44.9151 18.6698 45 18.7547 45C18.8396 45 18.9245 45 19.0094 45C19.0943 45 19.1792 44.9151 19.2642 44.9151C19.3491 44.9151 19.434 44.8302 19.5189 44.8302C19.5189 44.8302 19.6038 44.8302 19.6038 44.7453C19.6887 44.6604 19.6887 44.6604 19.7736 44.5755L19.8585 44.4906L33.6132 31.1604L33.6981 31.0755C33.783 30.9906 33.783 30.9906 33.783 30.9057C36.0755 28.5283 37.2642 25.217 37.2642 20.8868V4.75472C37.3491 3.99057 36.7547 3.31132 36.0755 3.14151ZM20.283 39.3962V34.6415H23.3396C24.0189 34.6415 24.6981 34.6415 25.3774 34.5566L20.283 39.3962ZM34.2076 20.8868C34.2076 29.717 28.3491 31.5849 23.4245 31.5849H18.8396C18.7547 31.5849 18.7547 31.5849 18.6698 31.5849H17.2264V41.2641C8.0566 38.2075 3.64151 32.0943 3.64151 22.6698V6.0283L18.8396 3.14151L34.2076 6.0283V20.8868Z" fill="white"/>
<path id="Vector_3" d="M25.0369 22.8397H12.1313C11.6218 22.8397 11.2822 23.2642 11.2822 23.6888V25.0473C11.2822 25.5567 11.7068 25.8963 12.1313 25.8963H25.0369C25.5464 25.8963 25.886 25.4718 25.886 25.0473V23.7737C25.886 23.2642 25.5464 22.8397 25.0369 22.8397ZM11.2822 17.4058V18.7642C11.2822 19.2737 11.7068 19.6133 12.1313 19.6133H25.0369C25.5464 19.6133 25.886 19.1888 25.886 18.7642V17.4058C25.886 16.8963 25.4615 16.5567 25.0369 16.5567H12.1313C11.6218 16.5567 11.2822 16.9812 11.2822 17.4058ZM11.2822 11.1227V12.4812C11.2822 12.9907 11.7068 13.3303 12.1313 13.3303H19.5181C20.0275 13.3303 20.3671 12.9058 20.3671 12.4812V11.1227C20.3671 10.6133 19.9426 10.2737 19.5181 10.2737H12.1313C11.6218 10.2737 11.2822 10.6133 11.2822 11.1227Z" fill="white"/>
<path id="Vector_4" d="M54.4148 15.9619C55.3488 15.9619 56.1978 16.0468 56.962 16.3015C57.7261 16.4713 58.3205 16.811 58.8299 17.2355C59.3393 17.66 59.7639 18.1695 60.0186 18.7638C60.2733 19.3581 60.4431 20.1223 60.4431 20.8864C60.4431 21.9902 60.1884 22.8393 59.7639 23.5185C59.3393 24.1978 58.6601 24.7921 57.8959 25.1317L60.528 30.2261C60.528 30.311 60.6129 30.3959 60.6129 30.4808C60.6129 30.6506 60.528 30.7355 60.4431 30.8204C60.3582 30.9053 60.2733 30.9902 60.1035 30.9902H57.2167C56.962 30.9902 56.7073 30.9053 56.6223 30.8204C56.5374 30.6506 56.3676 30.5657 56.3676 30.3959L53.9903 25.7261H52.0374V30.311C52.0374 30.4808 51.9525 30.5657 51.8676 30.7355C51.7827 30.9053 51.6129 30.9053 51.4431 30.9053H48.6412C48.4714 30.9053 48.3865 30.8204 48.2167 30.7355C48.1318 30.6506 48.0469 30.4808 48.0469 30.311V16.5563C48.0469 16.3864 48.1318 16.3015 48.2167 16.1317C48.3016 16.0468 48.4714 15.9619 48.6412 15.9619H54.4148ZM52.0374 22.4147H54.4148C55.0091 22.4147 55.5186 22.3298 55.8582 22.0751C56.1978 21.8204 56.4525 21.3959 56.4525 20.8015C56.4525 20.2072 56.2827 19.7827 55.8582 19.528C55.4337 19.2732 55.0091 19.1883 54.4148 19.1883H52.0374V22.4147Z" fill="white"/>
<path id="Vector_5" d="M63.416 27.6792C63.416 26.7452 63.7556 25.9811 64.5198 25.3868C65.199 24.7924 66.3877 24.3679 68.0009 24.0283L70.4632 23.6037C70.4632 23.2641 70.3783 23.0094 70.2085 22.7547C70.0387 22.5 69.699 22.4151 69.2745 22.4151C68.9349 22.4151 68.6802 22.5 68.5104 22.5849C68.3405 22.6698 68.1707 22.7547 68.0858 22.8396C67.916 22.9245 67.8311 23.0094 67.7462 23.0943C67.6613 23.1792 67.4915 23.0943 67.3217 23.0943H64.6047C64.4349 23.0943 64.35 23.0943 64.2651 22.9245C64.1802 22.8396 64.1802 22.7547 64.1802 22.5849C64.1802 22.2452 64.35 21.9056 64.6047 21.566C64.8594 21.2264 65.199 20.8868 65.6236 20.5471C66.0481 20.2075 66.6424 20.0377 67.2368 19.783C67.8311 19.6132 68.5104 19.4434 69.2745 19.4434C70.1236 19.4434 70.8877 19.5283 71.567 19.783C72.2462 20.0377 72.7556 20.2924 73.1802 20.632C73.6047 20.9717 73.9443 21.4811 74.1141 21.9905C74.2839 22.5 74.4538 23.0943 74.4538 23.6886V30.1415C74.4538 30.3113 74.3688 30.3962 74.2839 30.566C74.199 30.7358 74.0292 30.7358 73.8594 30.7358H71.1424C70.9726 30.7358 70.8877 30.6509 70.7179 30.566C70.5481 30.4811 70.5481 30.3113 70.5481 30.1415V29.7169C70.2085 30.1415 69.7839 30.4811 69.2745 30.7358C68.7651 30.9905 68.0858 31.0754 67.3217 31.0754C66.7273 31.0754 66.133 30.9905 65.7085 30.8207C65.199 30.6509 64.8594 30.3962 64.5198 30.1415C64.1802 29.8019 63.9255 29.4622 63.7556 29.0377C63.5009 28.6132 63.416 28.1886 63.416 27.6792ZM68.2556 28.1886C68.5953 28.1886 68.85 28.1037 69.1047 28.0188C69.3594 27.9339 69.6141 27.7641 69.7839 27.5943C69.9538 27.4245 70.1236 27.1698 70.2934 26.9151C70.3783 26.6603 70.4632 26.4056 70.4632 26.1509L68.5104 26.4905C68.0858 26.5754 67.8311 26.6603 67.5764 26.8302C67.3217 27 67.2368 27.2547 67.2368 27.5094C67.2368 27.7641 67.3217 27.9339 67.4915 28.1037C67.6613 28.1037 67.916 28.1886 68.2556 28.1886Z" fill="white"/>
<path id="Vector_6" d="M82.0082 18C82.0082 18.1698 81.9233 18.2547 81.8384 18.4245C81.7535 18.5943 81.5837 18.5943 81.4139 18.5943H78.6969C78.5271 18.5943 78.4422 18.5094 78.2723 18.4245C78.1025 18.3396 78.1025 18.1698 78.1025 18V15.8774C78.1025 15.7075 78.1874 15.6226 78.2723 15.4528C78.3573 15.3679 78.5271 15.283 78.6969 15.283H81.4139C81.5837 15.283 81.6686 15.3679 81.8384 15.4528C81.9233 15.5377 82.0082 15.7075 82.0082 15.8774V18ZM82.0082 30.3113C82.0082 30.4811 81.9233 30.566 81.8384 30.7359C81.7535 30.9057 81.5837 30.9057 81.4139 30.9057H78.6969C78.5271 30.9057 78.4422 30.8208 78.2723 30.7359C78.1025 30.6509 78.1025 30.4811 78.1025 30.3113V20.3774C78.1025 20.2075 78.1874 20.1226 78.2723 19.9528C78.3573 19.783 78.5271 19.783 78.6969 19.783H81.4139C81.5837 19.783 81.6686 19.8679 81.8384 19.9528C82.0082 20.0377 82.0082 20.2075 82.0082 20.3774V30.3113Z" fill="white"/>
<path id="Vector_7" d="M89.8227 30.3113C89.8227 30.4811 89.7377 30.566 89.6528 30.7359C89.5679 30.9057 89.3981 30.9057 89.2283 30.9057H86.5113C86.3415 30.9057 86.2566 30.8208 86.0868 30.7359C85.917 30.6509 85.917 30.4811 85.917 30.3113V16.3019C85.917 16.1321 86.0019 16.0472 86.0868 15.8774C86.1717 15.7076 86.3415 15.7076 86.5113 15.7076H89.2283C89.3981 15.7076 89.483 15.7925 89.6528 15.8774C89.8227 15.9623 89.8227 16.1321 89.8227 16.3019V30.3113Z" fill="white"/>
<path id="Vector_8" d="M100.181 15.9619C101.199 15.9619 102.048 16.1317 102.898 16.3864C103.747 16.6412 104.426 17.0657 105.02 17.5751C105.614 18.0846 106.039 18.7638 106.379 19.443C106.718 20.2072 106.888 20.9713 106.973 21.8204C106.973 22.16 106.973 22.4147 106.973 22.6695C106.973 22.9242 106.973 23.1789 106.973 23.3487C106.973 23.5185 106.973 23.7732 106.973 24.028C106.973 24.2827 106.973 24.5374 106.973 24.7921C106.973 25.6412 106.718 26.4902 106.379 27.1695C106.039 27.9336 105.614 28.5279 105.02 29.0374C104.426 29.5468 103.747 29.9713 102.982 30.2261C102.218 30.4808 101.284 30.6506 100.35 30.6506H94.5768C94.407 30.6506 94.322 30.5657 94.1522 30.4808C94.0673 30.3959 93.9824 30.2261 93.9824 30.0563V16.5563C93.9824 16.3864 94.0673 16.3015 94.1522 16.1317C94.2371 16.0468 94.407 15.9619 94.5768 15.9619H100.181ZM102.982 21.8204C102.898 20.2072 101.964 19.3581 100.096 19.3581H97.8881V27.4242H100.181C101.964 27.4242 102.898 26.5751 102.982 24.9619C102.982 24.6223 102.982 24.3676 102.982 24.1129C102.982 23.8581 102.982 23.6034 102.982 23.3487C102.982 23.094 102.982 22.8393 102.982 22.5846C102.982 22.3298 102.982 22.0751 102.982 21.8204Z" fill="white"/>
<path id="Vector_9" d="M121.745 24.5377C121.745 24.7924 121.745 25.0472 121.745 25.3868C121.745 25.7264 121.745 25.9811 121.745 26.2358C121.745 26.9151 121.575 27.5943 121.236 28.1887C120.896 28.783 120.557 29.2924 120.047 29.717C119.538 30.1415 118.943 30.4811 118.264 30.7358C117.585 30.9906 116.736 31.1604 115.887 31.1604C115.038 31.1604 114.274 30.9906 113.509 30.7358C112.83 30.4811 112.236 30.1415 111.726 29.717C111.217 29.2924 110.877 28.783 110.538 28.1887C110.198 27.5943 110.113 26.9151 110.028 26.2358C110.028 25.9811 110.028 25.7264 110.028 25.3868C110.028 25.0472 110.028 24.7924 110.028 24.5377C110.028 23.8585 110.198 23.1792 110.453 22.5849C110.708 21.9906 111.132 21.4811 111.642 21.0566C112.151 20.6321 112.745 20.2924 113.425 19.9528C114.104 19.6981 114.953 19.5283 115.802 19.5283C116.651 19.5283 117.415 19.6981 118.179 19.9528C118.859 20.2075 119.453 20.5472 119.962 21.0566C120.472 21.4811 120.896 21.9906 121.151 22.5849C121.575 23.1792 121.745 23.8585 121.745 24.5377ZM114.019 26.066C114.019 26.5755 114.274 27 114.613 27.3396C114.953 27.6792 115.377 27.7641 115.972 27.7641C116.566 27.7641 116.991 27.5943 117.33 27.3396C117.67 27 117.84 26.5755 117.925 26.066C117.925 25.8113 117.925 25.6415 117.925 25.3019C117.925 24.9623 117.925 24.7924 117.925 24.5377C117.84 24.0283 117.67 23.6038 117.33 23.2641C116.991 22.9245 116.566 22.8396 115.972 22.8396C115.377 22.8396 114.953 23.0094 114.613 23.2641C114.274 23.6038 114.104 24.0283 114.019 24.5377C114.019 24.7924 113.934 24.9623 113.934 25.3019C113.934 25.6415 113.934 25.8113 114.019 26.066Z" fill="white"/>
<path id="Vector_10" d="M128.621 24.5378C128.621 24.7925 128.621 24.9623 128.621 25.3019C128.621 25.6415 128.621 25.8113 128.621 26.0661C128.705 26.5755 128.875 27 129.215 27.3396C129.555 27.6793 129.979 27.8491 130.573 27.8491C131.083 27.8491 131.422 27.7642 131.677 27.6793C131.932 27.5095 132.102 27.3396 132.272 27.0849C132.356 27 132.441 26.8302 132.526 26.7453C132.611 26.6604 132.781 26.5755 132.866 26.5755H135.668C135.838 26.5755 135.922 26.6604 136.092 26.7453C136.177 26.8302 136.262 27 136.262 27.1698C136.262 27.4245 136.177 27.7642 136.007 28.1887C135.838 28.6132 135.498 29.0378 135.073 29.4623C134.649 29.8868 134.055 30.3113 133.375 30.5661C132.696 30.8208 131.762 31.0755 130.573 31.0755C129.809 31.0755 129.045 30.9906 128.366 30.7359C127.687 30.4812 127.092 30.1415 126.583 29.717C126.073 29.2925 125.649 28.783 125.309 28.1887C124.97 27.5944 124.8 26.9151 124.8 26.151C124.8 25.8962 124.8 25.6415 124.8 25.3019C124.8 24.9623 124.8 24.6227 124.8 24.4528C124.8 23.6887 124.97 23.0095 125.309 22.4151C125.649 21.8208 125.988 21.3113 126.583 20.8868C127.092 20.4623 127.687 20.1227 128.366 19.8679C129.045 19.6132 129.809 19.5283 130.573 19.5283C131.677 19.5283 132.611 19.6981 133.375 20.0378C134.139 20.3774 134.649 20.717 135.073 21.1415C135.498 21.5661 135.838 21.9906 136.007 22.4151C136.177 22.8396 136.262 23.1793 136.262 23.434C136.262 23.6038 136.262 23.6887 136.092 23.8585C136.007 23.9434 135.838 24.0283 135.668 24.0283H132.866C132.696 24.0283 132.611 24.0283 132.526 23.8585C132.441 23.6887 132.356 23.6887 132.272 23.5189C132.102 23.2642 131.932 23.0944 131.677 22.9245C131.422 22.7547 131.083 22.7547 130.573 22.7547C129.979 22.7547 129.555 22.9245 129.215 23.2642C128.875 23.6887 128.621 24.0283 128.621 24.5378Z" fill="white"/>
</g>
</g>
</g>
</g>
<defs>
<clipPath id="clip0_209_725">
<rect width="135.849" height="45" fill="white" transform="translate(0.5)"/>
</clipPath>
</defs>
</svg>
